<svg xmlns="http://www.w3.org/2000/svg" xmlns:xlink="http://www.w3.org/1999/xlink" width="267.13" height="308.669" viewBox="0 0 267.13 308.669">
  <defs>
    <linearGradient id="linear-gradient" x1="-1.02" y1="1" x2="-1.02" gradientUnits="objectBoundingBox">
      <stop offset="0" stop-color="gray" stop-opacity="0.251"/>
      <stop offset="0.54" stop-color="gray" stop-opacity="0.122"/>
      <stop offset="1" stop-color="gray" stop-opacity="0.102"/>
    </linearGradient>
  </defs>
  <g id="Group_659" data-name="Group 659" transform="translate(-67 -291.003)">
    <path id="Path_187" data-name="Path 187" d="M101.806,57.127c-7.371-.255-14.392-2.635-21.1-5.239S67.366,46.4,60.172,45.02c-4.628-.887-9.92-1.012-13.648,1.468C42.938,48.872,41.775,53,41.153,56.822c-.469,2.877-.745,5.9.539,8.6.892,1.87,2.477,3.442,3.573,5.233,3.811,6.232,1.119,13.919-3.014,20-1.933,2.855-4.185,5.578-5.68,8.617s-2.187,6.521-.879,9.621c1.3,3.073,4.387,5.381,7.733,7,6.8,3.3,14.809,4.241,22.621,4.775,17.292,1.182,34.677.671,52.015.158a152.739,152.739,0,0,0,19.174-1.375c3.5-.55,7.123-1.425,9.667-3.536a8.1,8.1,0,0,0,1.866-10.582C145.136,99.7,135.1,98.3,132.559,92.253c-1.4-3.329.038-7.039,2.068-10.127,4.355-6.625,11.655-12.437,12.04-20.009.265-5.2-3.245-10.409-8.67-12.87-5.688-2.579-13.574-2.255-17.77,2.015C115.908,55.662,108.315,57.353,101.806,57.127Z" transform="translate(31.999 246.564)" fill="#201d37"/>
    <path id="Path_1727" data-name="Path 1727" d="M1517.592,1547.643s9.15,25.912-23.442,24.429-30.277-13.091-61.523-10.4-77.16,10.71-60.657-23.221S1510.03,1510.3,1517.592,1547.643Z" transform="translate(-1184.645 -972.461)" fill="#201d37"/>
    <path id="Path_195" data-name="Path 195" d="M646.112,384.157a9.08,9.08,0,0,0,1.917,1.937c.474.392.963.8,1.473,1.152.143.1.29.2.438.3,0,.025-.031.051-.041.082a1.157,1.157,0,0,0-.133.709,1.529,1.529,0,0,0,.545.734,7.545,7.545,0,0,1,2.3,4.154c.173.923-.449,1.912-.408,2.85a8.3,8.3,0,0,0,.724,2.661,14.367,14.367,0,0,0,3.16,5.475,17.7,17.7,0,0,0,3.543,8.732,28.392,28.392,0,0,0,5.979,5.24,11.615,11.615,0,0,0,2.207,1.387,12.479,12.479,0,0,0,2.187.586,112.754,112.754,0,0,0,19.213,2.172q.27,5.76.234,11.515a4.749,4.749,0,0,1-.265,1.861,8.277,8.277,0,0,1-1.111,1.56c-1.473,1.957-1.529,4.618-1.427,7.07a65.153,65.153,0,0,0,1.02,8.554c.668,3.619.056,7.616,1.341,11.062.51,1.361,1.019,2.717,1.529,4.078a3.6,3.6,0,0,1,.3,1.208,5.327,5.327,0,0,1-1.02,2.426,7.029,7.029,0,0,0-.892,3.706.77.77,0,0,0,.107.413c.168.224.51.2.785.163a33,33,0,0,1,3.405-.316,6.244,6.244,0,0,0-.55.81,11.92,11.92,0,0,0-.724,1.488,14.089,14.089,0,0,0-.969,2.661,3.235,3.235,0,0,0-.1.408c-.061.275-.117.556-.163.831a27.526,27.526,0,0,0-.3,4.894,51.835,51.835,0,0,1-.607,7.167c-.418,1.32.1,3.431.617,5.444a12.888,12.888,0,0,0,.739,4.078,24.571,24.571,0,0,0,.51,4.3q2.646,14.905,5.607,29.739c.178.861.347,1.718.576,2.549a20.86,20.86,0,0,0,3.818,7.549,34.322,34.322,0,0,1,3.986,6.382c-.117.54-.24,1.081-.367,1.616-1.121,4.736-2.6,9.4-3.12,14.242a19.753,19.753,0,0,1-1.019,5.694,8.726,8.726,0,0,0-1.02,2.758,3.059,3.059,0,0,0,.423,1.789c-.133.1-.26.2-.382.3l-.209.173c-1.448,1.152-3.39,1.387-5.174,1.85s-3.706,1.407-4.256,3.181a2.789,2.789,0,0,0-.087.341,4.509,4.509,0,0,0,2.039,4.323,11.45,11.45,0,0,0,5.1,1.565,16.591,16.591,0,0,1,5.245,1.2c1.4.693,2.574,1.83,4.078,2.329l.26.077c-.331.2-.668.393-1.019.571a15.348,15.348,0,0,1-4.889,1.529c-1.723.24-3.782.352-4.669,1.855h0a3.308,3.308,0,0,0,.846,3.9,8.1,8.1,0,0,0,3.895,1.723,70.852,70.852,0,0,0,9.685,1.2l3.166.24c3.059.234,6.178.474,9.277.51a63.915,63.915,0,0,0,11.408-.994,1.244,1.244,0,0,0,.907-.438,1.3,1.3,0,0,0,.138-.724,55.753,55.753,0,0,0-1.448-11.5c-.26-1.132-1.8.413-2.671,1.392-.112-.566-.245-1.127-.393-1.672l.678-.321a2.441,2.441,0,0,0,1.244-1.019,2.494,2.494,0,0,0,.133-1.2c-.122-2.488-.275-5.067-1.458-7.254a15.375,15.375,0,0,0-2.885-3.512,134.013,134.013,0,0,0-2.824-23.265c-.877-3.9-1.963-7.84-4.216-11.138-.28-.413-.586-.826-.892-1.239a100.169,100.169,0,0,0-1.361-11.179,2.886,2.886,0,0,1,0-1.488,4.588,4.588,0,0,1,.821-1.132c1.356-1.748.8-4.236.642-6.448a30.8,30.8,0,0,1,1.269-9.43q1.386-5.73,2.758-11.464a18.577,18.577,0,0,1,.968-3.176,31.365,31.365,0,0,1,2.488-4.007,22.6,22.6,0,0,0,3.456-13.615c.51.183,1.02.372,1.56.576.382-3.2-.969-6.836,0-9.843a12.653,12.653,0,0,0,3.9-4.649c.754-1.692.969-3.6,1.759-5.276a16.269,16.269,0,0,0,1.336-2.829c.393-1.529-.1-3.12-.076-4.685.051-3.41,2.549-6.576,1.988-9.945-.255-1.6-1.183-3.058-1.132-4.7a7.876,7.876,0,0,1,.657-2.549c1.876-4.97,3.726-10.261,2.763-15.491a17.526,17.526,0,0,1-.607-4.027c.081-1.555.821-3.059.6-4.613a3.5,3.5,0,0,0-.693-1.616A19.371,19.371,0,0,0,746,409.15a4.684,4.684,0,0,0,.454-2.09,3.7,3.7,0,0,0-1.473-2.488,14.9,14.9,0,0,0-2.549-1.483,2.08,2.08,0,0,1-.749-.535,5.474,5.474,0,0,1-.423-.805c-.51-.872-1.6-1.147-2.457-1.672-3.109-1.9-2.809-6.785-5.465-9.288a5.312,5.312,0,0,0-6.627-.352,1.626,1.626,0,0,1-.938.464,1.8,1.8,0,0,1-.907-.51,3.655,3.655,0,0,0-2.243-.622,21.516,21.516,0,0,1-.673-5.949h.239a3.146,3.146,0,0,0,.928-.107c1.366-.392,2.146-1.8,2.7-3.12a23.7,23.7,0,0,0,1.2-3.426c.031-.112.056-.224.082-.331,2.615,1.835,5.653,3.757,6.377,3.354,1.341-.739-5.99-5.954-5.99-5.954h0a5.834,5.834,0,0,0,1.529-3.364,18.3,18.3,0,0,0,.061-7.366,8.7,8.7,0,0,0-4.205-5.816,10.087,10.087,0,0,1-2.85-1.616h0a1.834,1.834,0,0,1-.275-.377h0a.958.958,0,0,1-.112-.2,2.776,2.776,0,0,0-.306-.6c-.4-.464-1.132-.321-1.738-.25h-.525c-2.172.046-4.277-1.167-6.474-1.167-2.411,0-4.46,1.4-6.581,2.355-.428.194-.836.372-1.218.551a5.5,5.5,0,0,0-3.059,2.778,4.308,4.308,0,0,0-.882,1.708,4.009,4.009,0,0,0-.112.877,14.584,14.584,0,0,0,6.555,24.468c.051.143.1.285.148.428a12.27,12.27,0,0,1,.637,4.078v.291a11.064,11.064,0,0,0-3.145,1.28,6.081,6.081,0,0,0-2.651,3.257,3.155,3.155,0,0,0-.081.311,8.389,8.389,0,0,0-2.4-.413,2.572,2.572,0,0,0-2.039.617,1.88,1.88,0,0,0-.387.79c-.28.26-.336.709-.51,1.05-.617,1.076-2.207.724-3.405,1.02-1.3.321-2.324,1.529-3.665,1.529a6.259,6.259,0,0,0-1.529-.056c-.51.122-.9.81-.51,1.157a1.626,1.626,0,0,0-1.529.739c-.367.479-.612,1.05-1.019,1.5a1.56,1.56,0,0,0-1.59-.617,5.9,5.9,0,0,0-1.677.663,2.407,2.407,0,0,1-.739.26,3.185,3.185,0,0,1-.9-.081,7.208,7.208,0,0,0-4.221.591c-1.162.551-2.279-.459-3.568-.54a1.993,1.993,0,0,1-1.3-.4,2.549,2.549,0,0,1-.51-1.02,5.1,5.1,0,0,0-3.731-3.3,4.343,4.343,0,0,0-2.549-5.357,4.634,4.634,0,0,0-1.59-4.037,7.453,7.453,0,0,1-.805-.632,3.863,3.863,0,0,1-.739-1.366l-1.132-3c-.51-.1-.892-.311-1.366-.392v-.306a9.824,9.824,0,0,0-.51-3.008,16.846,16.846,0,0,0-2.416-4.4,12.678,12.678,0,0,0-3.884-3.9,13.922,13.922,0,0,0-1.657-.765l-2.916-1.2a1.419,1.419,0,0,0-.51-.143c-.785,0-.928,1.213-.51,1.861.887,1.31,2.885,1.677,3.451,3.16a2.248,2.248,0,0,0-2.085,1.621,1.136,1.136,0,0,1-.28.658c-.255.209-.658.087-.953.245-.51.28-.291,1.055-.347,1.641a7.885,7.885,0,0,1-.51,1.478A3.166,3.166,0,0,0,646.112,384.157Zm69.9,204.411c0-.3-.041-.6-.066-.9.061.158.117.321.178.479.51,1.346,1.086,2.671,1.687,3.981l-.1-.056a5.043,5.043,0,0,0-1.392-.4,1.429,1.429,0,0,1-.387-.036,10.871,10.871,0,0,0,.082-3.064Z" transform="translate(-457.603 -27.999)" fill="url(#linear-gradient)"/>
    <path id="Path_196" data-name="Path 196" d="M764.745,416.194c-.056,2.131-.775,4.19-.887,6.316,6.265.311,12.448-2.727,18.657-1.8a8.629,8.629,0,0,1-3.211-5.138,21.446,21.446,0,0,1-.612-7.891,3.242,3.242,0,0,1,.082-.438c.229-1.02.826-2.513.663-3.334-.209-1.081-1.229-.867-2.151-.805a81.043,81.043,0,0,0-8.365,1.081c-.719.122-7.748,1.876-7.85,1.692a33.03,33.03,0,0,1,3.059,6.265A12.167,12.167,0,0,1,764.745,416.194Z" transform="translate(-514.24 -52.298)" fill="#ee8e9e"/>
    <path id="Path_197" data-name="Path 197" d="M646.122,403.262a9.173,9.173,0,0,0,1.917,1.927c.474.392.963.79,1.473,1.147a6.3,6.3,0,0,0,3.135,1.274c1.494.1,4.659-.775,5.607-2.039a3.682,3.682,0,0,0,.535-2.141,9.723,9.723,0,0,0-.51-2.992,16.7,16.7,0,0,0-2.416-4.374,12.889,12.889,0,0,0-3.884-3.884,14.785,14.785,0,0,0-1.657-.765l-2.916-1.193a1.418,1.418,0,0,0-.51-.143c-.785,0-.928,1.2-.51,1.85.887,1.3,2.885,1.667,3.451,3.145a2.238,2.238,0,0,0-2.085,1.611,1.122,1.122,0,0,1-.28.652c-.255.209-.658.092-.953.245-.51.28-.291,1.05-.347,1.636a7.919,7.919,0,0,1-.51,1.468A3.13,3.13,0,0,0,646.122,403.262Z" transform="translate(-457.612 -45.942)" fill="#ee8e9e"/>
    <path id="Path_198" data-name="Path 198" d="M803.7,825.083c-.479-.51-1.269-.4-1.942-.3a72.094,72.094,0,0,1-10.934.887c-.459-2.238.872-4.414,1.3-6.662a5.883,5.883,0,0,1,.433-1.682,3.844,3.844,0,0,1,2.768-1.672c1.973-.413,5.052-1.147,6.153.841C802.8,818.89,803.226,822.422,803.7,825.083Z" transform="translate(-528.783 -254.345)" fill="#65617d"/>
    <path id="Path_200" data-name="Path 200" d="M735.56,807.722a11.446,11.446,0,0,0,5.1,1.56,16.587,16.587,0,0,1,5.245,1.2c1.4.688,2.574,1.82,4.078,2.314a8.446,8.446,0,0,0,4.205.066c1.662-.311,3.431-.917,4.328-2.35a7.227,7.227,0,0,0,.6-4.394c-.128-1.7-.25-3.395-.377-5.1a2.41,2.41,0,0,0-.316-1.229c-1.2-1.753-4.119.729-5.684.729a10.955,10.955,0,0,1-6.917-2.987,2.218,2.218,0,0,0-.54-.408c-.7-.316-1.412.27-2.039.78l-.209.173c-1.448,1.147-3.39,1.381-5.174,1.845s-3.706,1.4-4.256,3.161a2.715,2.715,0,0,0-.087.336A4.417,4.417,0,0,0,735.56,807.722Z" transform="translate(-500.699 -245.451)" opacity="0.05"/>
    <path id="Path_202" data-name="Path 202" d="M735.392,808.313a11.447,11.447,0,0,0,5.1,1.56,16.586,16.586,0,0,1,5.245,1.2c1.4.688,2.574,1.82,4.078,2.314a8.45,8.45,0,0,0,4.205.066,6.947,6.947,0,0,0,4.328-2.921,7.228,7.228,0,0,0,.6-4.394c-.128-1.7-.25-3.395-.377-5.1a2.411,2.411,0,0,0-.316-1.229c-1.2-1.753-4.119.729-5.684.729a10.955,10.955,0,0,1-6.917-2.987,2.217,2.217,0,0,0-.54-.408c-.7-.316-1.412.27-2.039.78a14.58,14.58,0,0,0,1.738,3.568,7.5,7.5,0,0,0,5.454,3.415,17.918,17.918,0,0,1,3.313.148c1.07.286,2.039,1.376,1.687,2.422s-1.677,1.234-2.758,1.29a12.216,12.216,0,0,1-4.5-.311c-.877-.3-1.677-.78-2.549-1.132-3.629-1.529-8.212-.663-11.215-3.206a6.747,6.747,0,0,0-.918-.7C732.543,805.086,734,807.359,735.392,808.313Z" transform="translate(-500.531 -245.46)" fill="#007aff"/>
    <path id="Path_204" data-name="Path 204" d="M774.951,594.978a22.313,22.313,0,0,1-3.058,16.465,30.776,30.776,0,0,0-2.488,3.986,18.4,18.4,0,0,0-.969,3.16l-2.758,11.429a30.855,30.855,0,0,0-1.269,9.379c.158,2.2.714,4.674-.642,6.418a4.587,4.587,0,0,0-.821,1.121,2.87,2.87,0,0,0,0,1.483c1.4,8.278,2.426,16.939-.092,24.947-2.279,7.259-2.411,15.293-4.353,22.664a5.019,5.019,0,0,1-1.2,2.513,3.982,3.982,0,0,1-1.81.861c-2.86.678-5.878-.117-8.544-1.356-1.876-.867-3.894-2.391-3.731-4.45a9.451,9.451,0,0,1,1.02-2.743,18.883,18.883,0,0,0,1.02-5.663c.51-4.812,2-9.456,3.12-14.166s1.886-9.629.938-14.375a125.82,125.82,0,0,0-9.252-28.449,3.325,3.325,0,0,0-.846-1.269,9.049,9.049,0,0,1-1.2-.821,3.6,3.6,0,0,1-.545-1.494c-.418-1.5-1.657-2.61-2.488-3.925-2.1-3.334-1.432-7.605-1.356-11.541.076-3.828-.474-7.687.153-11.464s2.788-7.646,6.428-8.819a13.823,13.823,0,0,1,5.643-.265A109.931,109.931,0,0,1,774.951,594.978Z" transform="translate(-500.707 -143.19)" fill="#303d5c" opacity="0.681"/>
    <path id="Path_205" data-name="Path 205" d="M733.529,620.739a23.952,23.952,0,0,0,.51,4.425q2.646,14.829,5.607,29.566c.178.856.347,1.708.576,2.549a20.721,20.721,0,0,0,3.818,7.509c8.309,10.353,9.028,25.391,13.534,37.875.3.846.607,1.692.928,2.549a63.142,63.142,0,0,0,2.783,6.2,1.748,1.748,0,0,0,.571.739,1.708,1.708,0,0,0,.907.178,26.43,26.43,0,0,0,11.724-2.666,2.426,2.426,0,0,0,1.244-1.019,2.481,2.481,0,0,0,.133-1.193c-.122-2.472-.275-5.042-1.458-7.213a15.292,15.292,0,0,0-2.885-3.5A132.635,132.635,0,0,0,768.7,673.6c-.877-3.879-1.963-7.8-4.216-11.082-1.662-2.421-4.042-4.807-3.752-7.728.133-1.285.668-2.88-.377-3.635-.454-.331-1.132-.372-1.437-.846a1.56,1.56,0,0,1-.2-.724,17.953,17.953,0,0,1,.372-5.995,32.265,32.265,0,0,0,.892-3.9,4.9,4.9,0,0,0-.984-3.772c-.056-2.666,0-5.434-.036-8.1a15.1,15.1,0,0,1,.377-4.522c.2-.7.51-1.366.663-2.08.561-2.549-.831-5.607.826-7.646a11.251,11.251,0,0,1,2.656-1.876,9.717,9.717,0,0,0,3.65-5.245,28.974,28.974,0,0,0,1.02-6.423,6.684,6.684,0,0,0,0-1.392,2.591,2.591,0,0,0-.189-.693c-.51-1.157-1.9-1.606-3.13-1.9a101.235,101.235,0,0,0-23.907-2.793c-2.977-2.039-4.654-1.3-5.913.846a21.8,21.8,0,0,0-1.687,4.114c-.576,1.738-.612,11.495-1.172,13.253C731.434,613.7,733.529,618.353,733.529,620.739Z" transform="translate(-499.988 -144.952)" fill="#303d5c"/>
    <path id="Path_207" data-name="Path 207" d="M821.52,471.169c.219,1.529-.51,3.058-.6,4.588a17.362,17.362,0,0,0,.607,4.007c.963,5.2-.887,10.465-2.763,15.41a7.789,7.789,0,0,0-.658,2.549c-.051,1.611.877,3.089,1.132,4.685.535,3.349-1.937,6.5-1.988,9.889,0,1.56.469,3.15.076,4.659a16.015,16.015,0,0,1-1.336,2.819c-.79,1.667-1.02,3.568-1.759,5.245-1.366,3.059-4.3,5.031-7.091,6.856-1.591-.51-3.308-1.157-4.18-2.585a6.4,6.4,0,0,1-.729-2.273,58.555,58.555,0,0,1-.561-10.526,65.65,65.65,0,0,1,.479-9.069c.566-3.823,1.8-7.509,2.7-11.271,1.122-4.746,1.7-9.65,3.446-14.2a47.891,47.891,0,0,1,6.453-11.026c.958-1.315,1.718-3.186,3.568-2.885a3.92,3.92,0,0,1,3.206,3.13Z" transform="translate(-534.14 -84.145)" fill="#3f3d56" opacity="0.05"/>
    <ellipse id="Ellipse_44" data-name="Ellipse 44" cx="14.477" cy="14.477" rx="14.477" ry="14.477" transform="translate(238.848 330.915)" fill="#ee8e9e"/>
    <path id="Path_209" data-name="Path 209" d="M737.93,594.041c2.5-.148,5.026-.051,7.539.051a26.213,26.213,0,0,1,4.685.479c1.9.433,3.68,1.3,5.556,1.84,3,.877,6.168.913,9.283,1.223a53.372,53.372,0,0,1,6.076.948,2.6,2.6,0,0,0-.189-.693c-.51-1.157-1.9-1.606-3.13-1.9a101.241,101.241,0,0,0-23.907-2.794C740.866,591.176,739.189,591.9,737.93,594.041Z" transform="translate(-502.896 -144.934)" opacity="0.1"/>
    <path id="Path_210" data-name="Path 210" d="M741.956,434.985c.632.729,1.478,1.529,2.416,1.295a3.335,3.335,0,0,0,.938-.51,14.147,14.147,0,0,1,5.679-1.626,83.454,83.454,0,0,0,11.724-2.63,11.951,11.951,0,0,1,3.461-.7c2.452,0,4.629,1.646,6.163,3.568s2.61,4.175,4.139,6.107c1.076,1.376,2.355,2.589,3.359,4.022,2.549,3.614,3.058,8.329,2.421,12.693s-2.4,8.482-4.124,12.54a43.209,43.209,0,0,1-3.369,6.8,16.2,16.2,0,0,1-1.3,10.083,10.128,10.128,0,0,0-1.315,3,7.578,7.578,0,0,0,.092,2.2l.739,5.24c.224,1.6.449,3.2.739,4.782.51,2.9,1.254,6.046-.092,8.666-1.611,3.14.082,7.172-.341,10.7a53.745,53.745,0,0,0-14.141-3.37c-3.109-.3-6.275-.342-9.277-1.213-1.876-.545-3.655-1.412-5.556-1.845a25.745,25.745,0,0,0-4.685-.479,55.713,55.713,0,0,0-10.394.234c-.28.041-.617.061-.785-.163a.75.75,0,0,1-.107-.408,6.942,6.942,0,0,1,.892-3.686,5.26,5.26,0,0,0,1.019-2.416,3.567,3.567,0,0,0-.3-1.2l-1.529-4.078c-1.285-3.426-.673-7.4-1.341-11a64.431,64.431,0,0,1-1.02-8.508c-.122-2.442-.046-5.1,1.427-7.04A8.022,8.022,0,0,0,728.6,474.5a4.717,4.717,0,0,0,.265-1.85q.046-7.325-.4-14.645c1.284-2.309,2.625-4.669,3.91-6.973a29.926,29.926,0,0,0,3.614-8.436c.4-2,.382-4.053.668-6.066a2.642,2.642,0,0,1,.51-1.412,2.564,2.564,0,0,1,2.039-.612A9,9,0,0,1,741.956,434.985Z" transform="translate(-497.058 -65.91)" fill="#3f3d56"/>
    <path id="Path_212" data-name="Path 212" d="M701.687,450.635a10.106,10.106,0,0,1-3.058,2.88,9.851,9.851,0,0,1-4.751.729A114.033,114.033,0,0,1,674,452.063a12.483,12.483,0,0,1-2.187-.586A11.6,11.6,0,0,1,669.6,450.1a27.828,27.828,0,0,1-5.979-5.21,17.582,17.582,0,0,1-3.543-8.691,14.211,14.211,0,0,1-3.16-5.444,8.218,8.218,0,0,1-.724-2.641c-.041-.938.581-1.922.408-2.844a7.488,7.488,0,0,0-2.3-4.129,1.529,1.529,0,0,1-.546-.729,1.142,1.142,0,0,1,.133-.7,5.443,5.443,0,0,1,3.767-2.834,16.348,16.348,0,0,1,4.863-.194,11.29,11.29,0,0,1,1.59.423l1.132,2.982a3.844,3.844,0,0,0,.739,1.361,7.4,7.4,0,0,0,.806.627,4.588,4.588,0,0,1,1.59,4.017,4.318,4.318,0,0,1,2.549,5.332,5.1,5.1,0,0,1,3.731,3.283,2.488,2.488,0,0,0,.51,1.02,1.994,1.994,0,0,0,1.3.4c1.28.076,2.4,1.086,3.568.54a7.208,7.208,0,0,1,4.221-.591,3.181,3.181,0,0,0,.9.076,2.275,2.275,0,0,0,.739-.255,6.055,6.055,0,0,1,1.677-.663,1.57,1.57,0,0,1,1.59.617c.408-.443.653-1.02,1.02-1.488a1.636,1.636,0,0,1,1.529-.739c-.387-.342,0-1.02.51-1.152a6.806,6.806,0,0,1,1.529.056c1.341,0,2.365-1.223,3.665-1.529,1.2-.3,2.788.056,3.405-1.02.214-.377.26-.887.627-1.121a1.223,1.223,0,0,1,.811-.092,7.917,7.917,0,0,1,2.442.739c1.254,4.9.6,10-.362,14.966A13.127,13.127,0,0,1,701.687,450.635Z" transform="translate(-461.627 -58.932)" fill="#3f3d56"/>
    <path id="Path_213" data-name="Path 213" d="M746.5,516.267l6.234,12.57c-.673-1.162-2.1-1.616-3.217-2.36a8.553,8.553,0,0,1-3.058-4.129,25.491,25.491,0,0,1-1.178-5.1,4.608,4.608,0,0,1,0-2.641C745.977,514.763,746.206,515.675,746.5,516.267Z" transform="translate(-506.4 -106.992)" opacity="0.1"/>
    <path id="Path_214" data-name="Path 214" d="M780.577,536.412a55.222,55.222,0,0,0,4.674,3.65c3.614,2.88,6.193,6.826,8.712,10.7a17.3,17.3,0,0,1,1.779,3.242c-.3.255-.739,0-1.02-.265l-4.893-4.3a10.87,10.87,0,0,1-1.631-1.652c-.851-1.147-1.228-2.549-2-3.772a14.847,14.847,0,0,0-2.977-3.058c-1.121-.964-6.29-5.332-5.031-7.03C779.088,534.414,779.833,535.673,780.577,536.412Z" transform="translate(-522.538 -116.464)" opacity="0.1"/>
    <path id="Path_217" data-name="Path 217" d="M746.155,832.4a8.106,8.106,0,0,0,3.895,1.713,70.868,70.868,0,0,0,9.685,1.193l3.166.245c3.059.234,6.178.469,9.277.484a63.919,63.919,0,0,0,11.408-.989,1.245,1.245,0,0,0,.907-.438,1.27,1.27,0,0,0,.137-.719,55.207,55.207,0,0,0-1.412-11.439c-.357-1.529-3.125,1.917-3.252,2.039a3.154,3.154,0,0,1-2.513,1.335c-3.186.173-6.749-1.764-9.283-3.487a11.751,11.751,0,0,0-1.718-1.065,5.224,5.224,0,0,0-1.391-.4,8.415,8.415,0,0,0-4.736.963c-1.906.943-3.568,2.3-5.454,3.268a15.348,15.348,0,0,1-4.889,1.529c-1.723.234-3.782.352-4.669,1.845h0A3.317,3.317,0,0,0,746.155,832.4Z" transform="translate(-506.35 -257.122)" fill="#3f3d56"/>
    <path id="Path_218" data-name="Path 218" d="M745.957,832.992a8.051,8.051,0,0,0,3.895,1.708,70.029,70.029,0,0,0,9.685,1.2l3.166.245c3.058.234,6.178.469,9.277.484a63.912,63.912,0,0,0,11.408-.989,1.244,1.244,0,0,0,.907-.438,5.1,5.1,0,0,0,.709-1.29c-.066-3.854-1.111-7.7-1.978-11.454-.357-1.529-3.125,1.917-3.252,2.039a3.154,3.154,0,0,1-2.513,1.336c-3.186.173-6.749-1.764-9.283-3.487a11.74,11.74,0,0,0-1.718-1.065,5.223,5.223,0,0,0-1.392-.4c.408,2.294,3.7,5.062,5.393,5.9,3.43,1.7,7.509.856,11.337,1.055a1.531,1.531,0,0,1,.8.194,1.62,1.62,0,0,1,.474,1.5c-.03.912-.148,1.988-.943,2.452a2.742,2.742,0,0,1-1.269.265,179.315,179.315,0,0,1-28.266-1.02,15.392,15.392,0,0,1-4.588-1.019,12.113,12.113,0,0,1-2.671-1.718C743.908,829.49,744.912,832.018,745.957,832.992Z" transform="translate(-506.151 -257.141)" fill="#007aff"/>
    <path id="Path_219" data-name="Path 219" d="M758.455,377.532c.056,1.493-.968,4.4,1.83,3.568,1.672-.484,2.141-2.457,4.256-2.039s2.6,3.059,3.324,4.756a9.114,9.114,0,0,0,6.6,5.332,3.966,3.966,0,0,0,1.815,0c1.366-.393,2.146-1.8,2.7-3.1a23.661,23.661,0,0,0,1.2-3.405,14.447,14.447,0,0,0,.433-2.5h0a11.5,11.5,0,0,0,0-1.728,14.018,14.018,0,0,0-4.675-8.854,41.843,41.843,0,0,0-8.467-5.714,12.3,12.3,0,0,0-3.12-1.392,10.369,10.369,0,0,0-3.3-.138,11.563,11.563,0,0,0-4.2.984,5.868,5.868,0,0,0-1.478,1.019,4.439,4.439,0,0,0-1.279,2.136c-.535,2.2.867,4.18,2,5.918C757.125,373.969,758.379,375.6,758.455,377.532Z" transform="translate(-510.764 -32.292)" fill="#3f3d56"/>
    <path id="Path_220" data-name="Path 220" d="M670.35,448.407c.6-1.529,3.109-5.679,2.386-7.137a19.076,19.076,0,0,0-1.917,3.421C670.345,445.878,670.732,447.443,670.35,448.407Z" transform="translate(-469.765 -71.037)" opacity="0.1"/>
    <path id="Path_221" data-name="Path 221" d="M755.954,374.185c-1.142-1.738-2.549-3.721-2.008-5.918a4.587,4.587,0,0,1,1.631-2.437,3.887,3.887,0,0,0-.413,1.02c-.54,2.2.867,4.18,2,5.918,1.02,1.529,2.268,3.186,2.345,5.1.056,1.5-.969,4.4,1.835,3.568,1.667-.484,2.136-2.462,4.257-2.039s2.6,3.058,3.318,4.756a9.109,9.109,0,0,0,6.6,5.327,3.966,3.966,0,0,0,1.815,0,2.683,2.683,0,0,0,.856-.418,3.706,3.706,0,0,1-2.07,1.83,3.965,3.965,0,0,1-1.815,0,9.125,9.125,0,0,1-6.6-5.332c-.714-1.708-1.183-4.307-3.318-4.756s-2.589,1.529-4.256,2.039c-2.8.811-1.779-2.1-1.835-3.568C758.243,377.366,756.973,375.729,755.954,374.185Z" transform="translate(-510.689 -34.053)" opacity="0.1"/>
    <path id="Path_223" data-name="Path 223" d="M755.955,366.085a12.873,12.873,0,0,0,.861,1.223,14.189,14.189,0,0,0,1.978,2.039,15.526,15.526,0,0,0,1.33,1.06,21.987,21.987,0,0,0,2.7,1.616,50.062,50.062,0,0,0,8.666,3.1l5.781,1.677c2.039,1.529,8.768,6.53,9.9,5.9,1.341-.734-5.99-5.923-5.99-5.923l-.336.255a5.37,5.37,0,0,0,1.876-3.568,18.122,18.122,0,0,0,.061-7.33,8.663,8.663,0,0,0-4.206-5.786,10.059,10.059,0,0,1-2.85-1.606,1.951,1.951,0,0,1-.275-.372,1.319,1.319,0,0,1-.112-.2,2.636,2.636,0,0,0-.306-.6c-.4-.464-1.132-.326-1.738-.25H773.1a2.4,2.4,0,0,1-.331,0c-2.172.051-4.277-1.157-6.474-1.157-2.411,0-4.46,1.392-6.581,2.34-.428.194-.836.372-1.218.551a5.259,5.259,0,0,0-3.313,3.5A4.4,4.4,0,0,0,755.955,366.085Z" transform="translate(-511.291 -29.317)" fill="#007aff"/>
    <path id="Path_216" data-name="Path 216" d="M759.339,429.121a14.526,14.526,0,0,1,5.184-1.708,10.864,10.864,0,0,1,3.293-.234c1.02.127,2,.51,3.023.576a13.628,13.628,0,0,0,4.21-.882,5.059,5.059,0,0,1,4.17.311,1.764,1.764,0,0,0,.907.484,1.617,1.617,0,0,0,.938-.459,5.332,5.332,0,0,1,6.627.352c2.656,2.488,2.355,7.351,5.464,9.237.861.51,1.957.8,2.457,1.667a5.991,5.991,0,0,0,.423.8,2.129,2.129,0,0,0,.749.51,14.859,14.859,0,0,1,2.549,1.473,3.68,3.68,0,0,1,1.473,2.477,4.644,4.644,0,0,1-.454,2.08,19.518,19.518,0,0,1-18.968,12.127,3,3,0,0,1-1.988-.617,3.766,3.766,0,0,1-.7-1.147c-1.463-3.059-4.205-5.332-5.954-8.248-1.02-1.738-1.7-3.68-2.788-5.388-1.636-2.595-4.134-4.511-6.576-6.372-1.376-1.05-2.911-2.151-4.639-2.075-1.529.066-2.661.148-2.095-1.743a6.046,6.046,0,0,1,2.692-3.222Z" transform="translate(-511.999 -63.66)" fill="#007aff"/>
    <g id="mail" transform="translate(98.078 315.246)">
      <g id="Group_83" data-name="Group 83" transform="translate(9.133 17.972)">
        <path id="Path_177" data-name="Path 177" d="M29.429,25.93a.837.837,0,0,1-.578-.23l-9.729-9.127a.845.845,0,1,1,1.158-1.231l9.729,9.127a.845.845,0,0,1-.58,1.461Z" transform="translate(3.892 -15.111)" fill="#f7f7f7"/>
        <path id="Path_178" data-name="Path 178" d="M6.248,25.929a.845.845,0,0,1-.58-1.461L15.4,15.342a.845.845,0,1,1,1.158,1.231L6.826,25.7A.837.837,0,0,1,6.248,25.929Z" transform="translate(-5.402 -15.111)" fill="#f7f7f7"/>
      </g>
      <path id="Path_179" data-name="Path 179" d="M48.207,41.758H4.227A4.232,4.232,0,0,1,0,37.531V8.709A4.232,4.232,0,0,1,4.227,4.482h43.98a4.232,4.232,0,0,1,4.227,4.227V37.531A4.232,4.232,0,0,1,48.207,41.758ZM4.227,6.173A2.539,2.539,0,0,0,1.691,8.709V37.531a2.539,2.539,0,0,0,2.536,2.536h43.98a2.539,2.539,0,0,0,2.536-2.536V8.709a2.539,2.539,0,0,0-2.536-2.536Z" transform="translate(0 -4.482)" fill="#f7f7f7"/>
      <path id="Path_180" data-name="Path 180" d="M25.762,26.818a4.728,4.728,0,0,1-3.1-1.119L.949,6.76A.845.845,0,1,1,2.059,5.485L23.769,24.422a3.164,3.164,0,0,0,3.985,0L49.436,5.516a.846.846,0,1,1,1.113,1.275L28.866,25.7A4.724,4.724,0,0,1,25.762,26.818Z" transform="translate(0.455 -3.932)" fill="#f7f7f7"/>
    </g>
  </g>
</svg>
