<svg id="Group_658" data-name="Group 658" xmlns="http://www.w3.org/2000/svg" xmlns:xlink="http://www.w3.org/1999/xlink" width="375" height="812" viewBox="0 0 375 812">
  <defs>
    <linearGradient id="linear-gradient" y1="0.5" x2="1" y2="0.5" gradientUnits="objectBoundingBox">
      <stop offset="0" stop-color="#2e2e5b"/>
      <stop offset="0.292" stop-color="#5bd6fd"/>
      <stop offset="0.807" stop-color="#5bd6fd"/>
      <stop offset="1" stop-color="#2e2e5b"/>
    </linearGradient>
    <linearGradient id="linear-gradient-2" x1="0.092" y1="0.94" x2="0.512" y2="0.487" gradientUnits="objectBoundingBox">
      <stop offset="0" stop-color="#311e3e"/>
      <stop offset="1" stop-color="#311e3e"/>
    </linearGradient>
    <filter id="Path_58" x="3.124" y="339.993" width="369.555" height="275.806" filterUnits="userSpaceOnUse">
      <feOffset dy="50" input="SourceAlpha"/>
      <feGaussianBlur stdDeviation="25" result="blur"/>
      <feFlood flood-opacity="0.161"/>
      <feComposite operator="in" in2="blur"/>
      <feComposite in="SourceGraphic"/>
    </filter>
    <linearGradient id="linear-gradient-3" x1="0.501" y1="1.029" x2="0.501" y2="0.001" gradientUnits="objectBoundingBox">
      <stop offset="0" stop-color="#5bd6fd"/>
      <stop offset="1" stop-color="#5bd6fd" stop-opacity="0.204"/>
    </linearGradient>
    <linearGradient id="linear-gradient-4" x1="-0.001" y1="0.501" x2="1" y2="0.501" gradientUnits="objectBoundingBox">
      <stop offset="0" stop-color="#fff"/>
      <stop offset="0.482" stop-color="#e4e4e4"/>
      <stop offset="1" stop-color="#fff"/>
    </linearGradient>
    <linearGradient id="linear-gradient-5" x1="0.51" y1="1.027" x2="0.51" y2="0.002" gradientUnits="objectBoundingBox">
      <stop offset="0" stop-color="#6ee8fd" stop-opacity="0"/>
      <stop offset="0.114" stop-color="#72cee4" stop-opacity="0.114"/>
      <stop offset="0.426" stop-color="#7b8ba4" stop-opacity="0.427"/>
      <stop offset="0.689" stop-color="#f7f7f7"/>
      <stop offset="0.888" stop-color="#5bd6fd"/>
      <stop offset="1" stop-color="#5bd6fd"/>
    </linearGradient>
    <linearGradient id="linear-gradient-6" x1="0.528" y1="1.023" x2="0.528" y2="-0.026" xlink:href="#linear-gradient-5"/>
    <linearGradient id="linear-gradient-7" x1="0.486" y1="1.028" x2="0.486" y2="0" xlink:href="#linear-gradient-5"/>
    <linearGradient id="linear-gradient-8" x1="0.487" y1="1.027" x2="0.487" gradientUnits="objectBoundingBox">
      <stop offset="0" stop-color="#1ec0ff" stop-opacity="0"/>
      <stop offset="0.09" stop-color="#2ab0eb" stop-opacity="0.09"/>
      <stop offset="0.411" stop-color="#527aa8" stop-opacity="0.412"/>
      <stop offset="0.681" stop-color="#f7f7f7"/>
      <stop offset="0.885" stop-color="#5bd6fd"/>
      <stop offset="1" stop-color="#5bd6fd"/>
    </linearGradient>
    <linearGradient id="linear-gradient-9" x1="0.49" y1="1.026" x2="0.49" y2="-0.002" xlink:href="#linear-gradient-5"/>
    <linearGradient id="linear-gradient-10" x1="0.495" y1="1.027" x2="0.495" y2="0.001" xlink:href="#linear-gradient-8"/>
    <linearGradient id="linear-gradient-11" x1="0.5" y1="1.027" x2="0.5" y2="0.002" gradientUnits="objectBoundingBox">
      <stop offset="0" stop-color="#6ee8fd" stop-opacity="0"/>
      <stop offset="0.114" stop-color="#72cee4" stop-opacity="0.114"/>
      <stop offset="0.426" stop-color="#7b8ba4" stop-opacity="0.427"/>
      <stop offset="0.689" stop-color="#f7f7f7"/>
      <stop offset="0.888" stop-color="#5cd7fd"/>
      <stop offset="1" stop-color="#5cd7fd"/>
    </linearGradient>
    <linearGradient id="linear-gradient-12" x1="0.482" y1="1.024" x2="0.482" y2="-0.018" gradientUnits="objectBoundingBox">
      <stop offset="0" stop-color="#6ee8fd" stop-opacity="0"/>
      <stop offset="1" stop-color="#6ee8fd"/>
    </linearGradient>
    <linearGradient id="linear-gradient-13" x1="0.529" y1="1.022" x2="0.529" y2="-0.016" xlink:href="#linear-gradient-5"/>
    <linearGradient id="linear-gradient-14" x1="0.511" y1="1.021" x2="0.511" y2="0.001" xlink:href="#linear-gradient-5"/>
    <linearGradient id="linear-gradient-15" x1="0.479" y1="1.02" x2="0.479" y2="-0.007" xlink:href="#linear-gradient-5"/>
  </defs>
  <path id="Path_1728" data-name="Path 1728" d="M1618.478,1561.584s15.341,37.337-39.3,35.2-50.764-18.863-103.152-14.987-129.368,15.432-101.7-33.459S1605.8,1507.77,1618.478,1561.584Z" transform="translate(2053.334 1547.877) rotate(164)" fill="#201d37"/>
  <rect id="BG" width="375" height="812" fill="none"/>
  <g id="Group_409" data-name="Group 409" transform="translate(71 282.27)">
    <g id="AR_AI_2" data-name="AR AI 2" transform="translate(0 0)">
      <g id="OBJECTS" transform="translate(0)">
        <g id="Group_48" data-name="Group 48">
          <path id="Path_55" data-name="Path 55" d="M418.9,119.064a1.294,1.294,0,0,1,1.425,0l17.524,10.116q.641.427,0,.855a1.294,1.294,0,0,1-1.425,0L418.9,119.919C418.468,119.776,418.468,119.349,418.9,119.064Z" transform="translate(-233.962 -24.088)" fill="#1ec0ff"/>
          <path id="Path_56" data-name="Path 56" d="M517.673,144.766,376.907,226.547c-6.981,3.989-18.379,3.989-25.361,0l-57.275-33.054c-3.562-1.995-5.272-4.7-5.272-7.409v7.124c0,2.707,1.71,5.414,5.272,7.409l57.275,33.054c6.981,3.989,18.379,3.989,25.361,0L517.673,151.89c3.419-1.995,5.129-4.7,5.272-7.266V137.5C522.8,140.065,521.093,142.772,517.673,144.766Z" transform="translate(-289 -16.167)" fill="url(#linear-gradient)"/>
          <path id="Path_57" data-name="Path 57" d="M511.906,144.391c4.844,2.849,4.844,7.266,0,10.116L371.14,236.288a18.741,18.741,0,0,1-17.382,0l-57.275-33.054c-4.844-2.849-4.844-7.266,0-10.116l140.766-81.781a18.74,18.74,0,0,1,17.382,0l6.126,3.562c1.14.712,1.14,1.71,0,2.422-2.137,1.282-2.137,3.419,0,4.7l32.912,18.949a8.754,8.754,0,0,0,7.978,0,4.261,4.261,0,0,1,4.132,0Z" transform="translate(-287.365 -28.187)" fill="url(#linear-gradient-2)"/>
          <g transform="matrix(1, 0, 0, 1, -71, -282.27)" filter="url(#Path_58)">
            <path id="Path_58-2" data-name="Path 58" d="M362.1,236.206a16.329,16.329,0,0,1-7.836-1.852l-57.418-33.2c-1.71-1-2.849-2.28-2.849-3.562s1-2.565,2.707-3.562l140.766-81.781a16.75,16.75,0,0,1,7.836-1.852,16.327,16.327,0,0,1,7.836,1.852l5.7,3.277a4.187,4.187,0,0,0-1.995,3.419,4.57,4.57,0,0,0,2.565,3.847l32.912,18.949a10.863,10.863,0,0,0,9.688,0,2.844,2.844,0,0,1,1.282-.285,3.4,3.4,0,0,1,1.282.285l6.127,3.562c1.71,1,2.849,2.28,2.849,3.562s-1,2.565-2.707,3.562L370.082,234.211A15.774,15.774,0,0,1,362.1,236.206Z" transform="translate(-215.88 254.59)" fill="#2758c7"/>
          </g>
          <path id="Path_59" data-name="Path 59" d="M438.912,161.612c2.137,1.282,2.137,3.277,0,4.559L390.756,194.1a8.462,8.462,0,0,1-7.836,0l-48.442-27.925c-2.137-1.282-2.137-3.277,0-4.559l48.157-27.925a8.462,8.462,0,0,1,7.836,0Z" transform="translate(-270.364 -18.195)" fill="#5bd6fd"/>
          <path id="Path_60" data-name="Path 60" d="M440.511,81.9H332.8V185.337h0a2.761,2.761,0,0,0,1.567,2.28l48.442,27.925a8.462,8.462,0,0,0,7.836,0L438.8,187.617c1.14-.712,1.71-1.567,1.567-2.28h0V81.9Z" transform="translate(-270.091 -39.478)" fill="url(#linear-gradient-3)"/>
          <g id="Group_47" data-name="Group 47" transform="translate(62.816)">
            <path id="Path_61" data-name="Path 61" d="M438.912,81.012c2.137,1.282,2.137,3.277,0,4.559L398.3,108.023l-8.828,5.276c-4.39-4.277,5.686,1.67-5.223,0L334.478,85.571c-2.137-1.282-2.137-3.277,0-4.559l48.157-27.925a8.462,8.462,0,0,1,7.836,0Z" transform="translate(-332.875 -52.125)" fill="#5bd6fd"/>
            <path id="Path_62" data-name="Path 62" d="M438.9,76.18,390.745,104.1a8.462,8.462,0,0,1-7.836,0L334.467,76.18A2.5,2.5,0,0,1,332.9,73.9V91.994a2.761,2.761,0,0,0,1.567,2.28L382.909,122.2a8.462,8.462,0,0,0,7.836,0L438.9,94.274a2.761,2.761,0,0,0,1.567-2.28V73.9A2.761,2.761,0,0,1,438.9,76.18Z" transform="translate(-332.864 -42.876)" fill="url(#linear-gradient-4)"/>
            <path id="Path_63" data-name="Path 63" d="M332.9,74.712a2.761,2.761,0,0,0,1.567,2.28l48.442,27.925a8.462,8.462,0,0,0,7.836,0L438.9,76.992a2.76,2.76,0,0,0,1.567-2.137V74a2.959,2.959,0,0,1-1.567,2.28L390.745,104.2a8.462,8.462,0,0,1-7.836,0L334.467,76.28A2.5,2.5,0,0,1,332.9,74V92.094h0Z" transform="translate(-332.864 -42.834)" fill="#2d2f5f"/>
            <path id="Path_64" data-name="Path 64" d="M440.469,86.1a2.959,2.959,0,0,1-1.567,2.28L390.745,116.3a8.462,8.462,0,0,1-7.836,0L334.467,88.38A2.761,2.761,0,0,1,332.9,86.1v.712a2.761,2.761,0,0,0,1.567,2.28l48.442,27.925a8.462,8.462,0,0,0,7.836,0L438.9,89.092a2.761,2.761,0,0,0,1.567-2.28V86.1Z" transform="translate(-332.864 -37.694)" fill="#2d2f5f"/>
            <path id="Path_66" data-name="Path 66" d="M438.912,81.012,390.471,53.087a8.462,8.462,0,0,0-7.836,0L334.478,81.012c-2.137,1.282-2.137,3.277,0,4.559L382.919,113.5a8.462,8.462,0,0,0,7.836,0l48.157-27.925C441.049,84.146,441.049,82.152,438.912,81.012Zm-.427,3.847-48.157,27.925a6.591,6.591,0,0,1-3.562.855,7.316,7.316,0,0,1-3.562-.855L334.763,84.859c-.855-.427-1.282-1-1.282-1.567s.427-1.14,1.282-1.567L382.919,53.8a6.591,6.591,0,0,1,3.562-.855,7.316,7.316,0,0,1,3.562.855l48.442,27.925c.855.427,1.282,1,1.282,1.567A2.117,2.117,0,0,1,438.485,84.859Z" transform="translate(-332.875 -52.125)" fill="#2d2f5f"/>
            <g id="Group_46" data-name="Group 46" transform="translate(29.307 129.706)">
              <path id="Path_67" data-name="Path 67" d="M403.653,78.374a4.1,4.1,0,0,0-2.137-2.28,11.221,11.221,0,0,0-3.277-1.14,4.3,4.3,0,0,0-2.565-3.989,10.666,10.666,0,0,0-4.274-1.282,2.652,2.652,0,0,0-1.71-2.422,5.587,5.587,0,0,0-1.852-.712,10.276,10.276,0,0,0-4.844-.427,2.684,2.684,0,0,0-1.14.285,5.256,5.256,0,0,0-1.567-1.425,9.831,9.831,0,0,0-3.277-1.14,10.256,10.256,0,0,0-6.554.855,8.6,8.6,0,0,0-7.124-.712c-2.137.712-3.134,1.567-3.419,2.137a2.026,2.026,0,0,0-.285.855,8.041,8.041,0,0,0-3.847,1.567c-1.71,1.425-.57,3.134-.285,3.7a3.06,3.06,0,0,0-.57,1,2.759,2.759,0,0,0,1,2.85,5.006,5.006,0,0,0,1.282,1,11.7,11.7,0,0,0,4.7,1.282c-.285,1.567.427,2.992,2.28,3.989a20.9,20.9,0,0,0,4.417,1.567,1.829,1.829,0,0,0-.285,2.565c-.427.57-1.995,2.28-1.852,4.132.285,1.995,1.14,2.707,1.425,2.85a5.645,5.645,0,0,0,2.137.285,1.81,1.81,0,0,0,1-.57,7.766,7.766,0,0,1,3.134-2.849,2.507,2.507,0,0,0,.855.142,6.71,6.71,0,0,0,2.137,1.852,12.868,12.868,0,0,0,8.691,1.14,12.762,12.762,0,0,0,7.979-.285c1.995-.855,2.707-1.852,2.992-2.565a1.688,1.688,0,0,0,.142-1.14c3.7-1.425,4.844-3.134,5.129-4.274a3.4,3.4,0,0,0-.285-1.995C402.371,82.221,404.508,80.654,403.653,78.374ZM369.744,92.337h0l-.285.285a3.136,3.136,0,0,1-1.14-.142,4.813,4.813,0,0,1-1-2.422A4.887,4.887,0,0,1,368.6,86.78l.143.142.285.285a5.116,5.116,0,0,0,1.425,1c.143,0,.143.142.285.142s.142.142.285.142h.142a14.834,14.834,0,0,0,1.71.712A7.7,7.7,0,0,0,369.744,92.337Zm31.345-10.4a5.44,5.44,0,0,0-1.852-1.567,12.39,12.39,0,0,0-3.277-1.14,1.068,1.068,0,0,0-.712.142c0,.142,0,.285.142.285a.14.14,0,0,1,.143.142,9.335,9.335,0,0,1,2.849,1,6.544,6.544,0,0,1,1.995,1.71s2.28,2.992-3.989,5.557a5.441,5.441,0,0,0-1.852-1.567,11.878,11.878,0,0,0-3.419-1.14c-.285,0-.57,0-.712.285,0,.142,0,.285.143.285a.441.441,0,0,1,.285.142,7.361,7.361,0,0,1,2.992,1,3.361,3.361,0,0,1,1.71,1.71c0,.142.285,1.852-2.707,3.277a10.406,10.406,0,0,1-6.126.427,5.8,5.8,0,0,0,2.707-1.852c.142-.142,0-.285-.143-.285h-.142a1.068,1.068,0,0,0-.712.142c-.855,1.14-2.992,1.71-3.135,1.852-.285,0-4.559.855-7.694-1a6.708,6.708,0,0,1-2.137-1.852s-.855-1,.855-2.422c.143-.142.143-.285-.143-.427a.627.627,0,0,0-.712.142c-1.14,1-1.282,1.852-1.14,2.422a10.819,10.819,0,0,1-1.567-.57,2.788,2.788,0,0,1-.855-.427,1881.718,1881.718,0,0,0-.427-.427.14.14,0,0,1-.143-.142,14.926,14.926,0,0,1-1.567-1.14l-.143-.142c-.143-.142-.285-.427-.427-.57a1.642,1.642,0,0,1,.712-2.565,10.976,10.976,0,0,1,6.839-2.422c.285,0,.57-.142.57-.285s0-.142-.142-.285c-.143,0-.285-.142-.427-.142a10.889,10.889,0,0,0-7.409,2.565,15.392,15.392,0,0,1-4.417-1.425c-1.567-.855-2.28-2.137-1.852-3.562,1.282,0,4.844-.142,5.984-2.422,0-.142,0-.285-.143-.285a.441.441,0,0,1-.285-.142,1.068,1.068,0,0,0-.712.142c-1.282,2.28-5.129,1.995-5.414,1.852a11.78,11.78,0,0,1-4.559-1,6.2,6.2,0,0,1-1-.855c-1.282-1.282-1-2.28-.57-2.85a.14.14,0,0,1,.143.142,5.838,5.838,0,0,0,3.7.57c.285,0,.427-.285.285-.427l-.143-.142a.856.856,0,0,0-.57-.142,2.531,2.531,0,0,1-2.422-.427,1.967,1.967,0,0,1-.57-.427c-.143-.142-1.567-1.852,0-3.277a5.017,5.017,0,0,1,2.992-1.282,3.786,3.786,0,0,0,1.425,1.852.636.636,0,0,0,.712,0,.267.267,0,0,0,0-.427,2.747,2.747,0,0,1-1.14-1.71s-.427-1.567,3.134-2.707a7.3,7.3,0,0,1,5.984.712.441.441,0,0,0,.285.142s2.707,1.852,1.14,3.562c-.143.142-.143.285.143.427h.142a.627.627,0,0,0,.712-.142,2.02,2.02,0,0,0,.142-2.85,8.145,8.145,0,0,0-1-1.14c.285-.142.712-.285,1.282-.57a11.016,11.016,0,0,1,4.417-.285,7.479,7.479,0,0,1,2.849.855c1.14.712,1.425,1.425,1.425,1.567a3.851,3.851,0,0,1-1.14,2.85c-.143.142,0,.285.143.427h.143a.626.626,0,0,0,.712-.142,4.723,4.723,0,0,0,1.282-2.992c.57-.285,2.28-.855,5.272.142a5.268,5.268,0,0,1,1.567.712c1.71,1,1.425,2.137,1.282,2.28,0,0-.143,1.995-2.85,3.134q-.428.214,0,.427a.647.647,0,0,0,.712,0c2.28-1.14,2.992-2.565,3.135-3.277a11.882,11.882,0,0,1,3.7,1.14,4.345,4.345,0,0,1,2.28,3.562h-1a3.668,3.668,0,0,0-2.565.712c-.143.142-.143.285.142.427a.636.636,0,0,0,.712,0c.57-.427,2.565-.427,3.277-.427a10.557,10.557,0,0,1,3.134,1.14,3.565,3.565,0,0,1,1.852,1.995A4.269,4.269,0,0,1,401.089,81.936Z" transform="translate(-354.837 -63.367)" fill="#332f35" stroke="#332f35" stroke-width="1"/>
              <g id="Group_43" data-name="Group 43" transform="translate(19.752 6.601)">
                <path id="Path_68" data-name="Path 68" d="M376.251,70.849a.14.14,0,0,1,.143.142q0,.214-.427.427a8.032,8.032,0,0,1-5.272-.855,4.261,4.261,0,0,1-1.995-2.137q0-.214.427-.427a.856.856,0,0,1,.57.142l.142.142a4.02,4.02,0,0,0,1.71,1.71,7,7,0,0,0,4.274.712A.7.7,0,0,1,376.251,70.849Z" transform="translate(-368.7 -68)" fill="#332f35" stroke="#332f35" stroke-width="1"/>
              </g>
              <g id="Group_44" data-name="Group 44" transform="translate(11.916 7.884)">
                <path id="Path_69" data-name="Path 69" d="M368.187,70.182c.712.427,1.282,1,1.14,1.71,0,.142-.285.285-.57.285a.523.523,0,0,1-.427-.142c-.142,0-.142-.142-.142-.285a1.369,1.369,0,0,0-.855-1.282,6.628,6.628,0,0,0-1.282-.427,21.327,21.327,0,0,0-2.422-.427c-.142,0-.285,0-.285-.142-.143,0-.143-.142-.143-.285s.285-.285.57-.285A14.474,14.474,0,0,1,368.187,70.182Z" transform="translate(-363.2 -68.9)" fill="#332f35" stroke="#332f35" stroke-width="1"/>
              </g>
              <g id="Group_45" data-name="Group 45" transform="translate(17.308 13.545)">
                <path id="Path_70" data-name="Path 70" d="M382.109,73.339c.285.142.143.285,0,.427-1.995,1-2.422,1.995-2.422,2.565a.14.14,0,0,0,.142.142v.142a1.542,1.542,0,0,0,.57.855c.143.142.143.285-.142.427a.636.636,0,0,1-.712,0h0a2.591,2.591,0,0,1-.855-1.425,5.716,5.716,0,0,0-2.137-1.995,6.771,6.771,0,0,0-3.134-.855c-3.989-.285-5.557.855-5.557.855a.647.647,0,0,1-.712,0h0c-.142-.142-.285-.285,0-.427.142,0,1.995-1.425,6.554-1.14a9.435,9.435,0,0,1,3.847,1.14,7.558,7.558,0,0,1,1.567,1.282,5.18,5.18,0,0,1,2.422-1.995C381.539,73.2,381.824,73.2,382.109,73.339Z" transform="translate(-366.984 -72.874)" fill="#332f35" stroke="#332f35" stroke-width="1"/>
              </g>
            </g>
            <path id="Path_71" data-name="Path 71" d="M333.327,75.182A2.3,2.3,0,0,1,332.9,73.9V91.994a2.041,2.041,0,0,0,.57,1.425V75.182Z" transform="translate(-332.864 -42.876)" fill="#2d2f5f"/>
          </g>
          <path id="Path_72" data-name="Path 72" d="M339.225,151.438h0a1.428,1.428,0,0,1-1.425-1.425V97.725a1.428,1.428,0,0,1,1.425-1.425h0a1.428,1.428,0,0,1,1.425,1.425v52.288A1.428,1.428,0,0,1,339.225,151.438Z" transform="translate(-268.272 -33.666)" fill="url(#linear-gradient-5)"/>
          <path id="Path_74" data-name="Path 74" d="M343.17,117.909h0c-.427,0-.57-.142-.57-.427v-6.554a.378.378,0,0,1,.427-.427h.142a.378.378,0,0,1,.427.427v6.554C343.74,117.624,343.455,117.909,343.17,117.909Z" transform="translate(-266.233 -27.635)" fill="url(#linear-gradient-6)"/>
          <path id="Path_75" data-name="Path 75" d="M356.51,176.746h0a1.733,1.733,0,0,1-1.71-1.71V110.21a1.733,1.733,0,0,1,1.71-1.71h0a1.732,1.732,0,0,1,1.71,1.71v64.826A1.732,1.732,0,0,1,356.51,176.746Z" transform="translate(-261.051 -28.484)" fill="url(#linear-gradient-7)"/>
          <path id="Path_76" data-name="Path 76" d="M367.78,178.893h0a2.25,2.25,0,0,1-2.28-2.28V125.18a2.25,2.25,0,0,1,2.28-2.28h0a2.25,2.25,0,0,1,2.28,2.28v51.434A2.25,2.25,0,0,1,367.78,178.893Z" transform="translate(-256.506 -22.368)" fill="url(#linear-gradient-8)"/>
          <path id="Path_77" data-name="Path 77" d="M378.982,163.679h0A1.277,1.277,0,0,1,377.7,162.4V114.382a1.277,1.277,0,0,1,1.282-1.282h0a1.277,1.277,0,0,1,1.282,1.282V162.4A1.377,1.377,0,0,1,378.982,163.679Z" transform="translate(-251.324 -26.531)" fill="url(#linear-gradient-9)"/>
          <path id="Path_78" data-name="Path 78" d="M402.652,170.39h0a1.886,1.886,0,0,0,1.852-1.852V99.152a1.886,1.886,0,0,0-1.852-1.852h0a1.886,1.886,0,0,0-1.852,1.852v69.386A1.886,1.886,0,0,0,402.652,170.39Z" transform="translate(-241.512 -33.242)" fill="url(#linear-gradient-10)"/>
          <path id="Path_79" data-name="Path 79" d="M390.767,169.125h0a1.581,1.581,0,0,0,1.567-1.567v-56.99A1.581,1.581,0,0,0,390.767,109h0a1.581,1.581,0,0,0-1.567,1.567v56.99A1.581,1.581,0,0,0,390.767,169.125Z" transform="translate(-246.44 -28.272)" fill="url(#linear-gradient-11)"/>
          <path id="Path_80" data-name="Path 80" d="M384.4,113.354h0a.974.974,0,0,1-1-1V107.8a.974.974,0,0,1,1-1h0a.974.974,0,0,1,1,1v4.559A.974.974,0,0,1,384.4,113.354Z" transform="translate(-248.903 -29.206)" fill="url(#linear-gradient-12)"/>
          <path id="Path_81" data-name="Path 81" d="M363.5,119.939h0a.974.974,0,0,1-1-1V114.1a.974.974,0,0,1,1-1h0a.974.974,0,0,1,1,1v4.844A.974.974,0,0,1,363.5,119.939Z" transform="translate(-257.78 -26.531)" fill="url(#linear-gradient-13)"/>
          <path id="Path_82" data-name="Path 82" d="M396.782,127.339h0a1.277,1.277,0,0,1-1.282-1.282v-4.274a1.277,1.277,0,0,1,1.282-1.282h0a1.277,1.277,0,0,1,1.282,1.282v4.274A1.277,1.277,0,0,1,396.782,127.339Z" transform="translate(-243.763 -23.387)" fill="url(#linear-gradient-14)"/>
          <path id="Path_83" data-name="Path 83" d="M349.54,132.264h0a1.226,1.226,0,0,1-1.14-1.14V125.14a1.226,1.226,0,0,1,1.14-1.14h0a1.226,1.226,0,0,1,1.14,1.14v5.984A1.226,1.226,0,0,1,349.54,132.264Z" transform="translate(-263.77 -21.901)" fill="url(#linear-gradient-15)"/>
        </g>
      </g>
    </g>
  </g>
  <g id="Group_410" data-name="Group 410" transform="translate(162 252.657)">
    <path id="Path_619" data-name="Path 619" d="M153.732,201.251a14.936,14.936,0,0,0-2.254,4.109,2.974,2.974,0,0,0,.283,2.448,37.816,37.816,0,0,0,3.719,1.883c.9.287,3.263,3.438,5.4,4.154s4.744,2.1,5.494.456-8.5-11.327-8.5-11.327Z" transform="translate(-94.474 -81.612)" fill="#4341aa"/>
    <path id="Path_620" data-name="Path 620" d="M178.763,199.371s.211,1.9,1.9,1.794a5.471,5.471,0,0,0,3.168-1.9l-.422,6.757s-.95,10.138-3.907,11.194-3.59-4.54-3.59-4.54Z" transform="translate(-149.993 -82.709)" fill="#4341aa"/>
    <path id="Path_621" data-name="Path 621" d="M201.161,158.969l.515,18.39-10.638,11.017-9.514-2.956a5.742,5.742,0,0,1-4.03-5.168l-.236-4.286s-4.689-5.1-3.164-5.492,22.258-14.21,22.258-14.21Z" transform="translate(-164.546 -106.458)" fill="#eabd70"/>
    <g id="Group_214" data-name="Group 214" transform="translate(13.785 68.246)">
      <path id="Path_622" data-name="Path 622" d="M186.918,219.89a5.434,5.434,0,0,1-4.717-8.122c1.94-3.424,6.917-13.879,6.62-20.995-.137-3.288-8.7-9.126-16.257-12.151a5.433,5.433,0,1,1,4.034-10.088c3.766,1.506,22.572,9.635,23.08,21.786.48,11.507-7.161,25.288-8.033,26.822A5.433,5.433,0,0,1,186.918,219.89Z" transform="translate(-169.147 -168.143)" fill="#eabd70"/>
    </g>
    <g id="Group_215" data-name="Group 215" transform="translate(29.213 64.388)">
      <path id="Path_623" data-name="Path 623" d="M186.922,225.117a5.431,5.431,0,0,1-5.41-5.015c-.518-6.718-2.558-25.732-5.728-32.935-1.878-4.27-11.36-8.941-17.493-10.894a5.433,5.433,0,0,1,3.28-10.358c3.247,1.026,19.666,6.662,24.16,16.875,4.485,10.2,6.408,33.818,6.613,36.479a5.431,5.431,0,0,1-5,5.834C187.2,225.113,187.062,225.117,186.922,225.117Z" transform="translate(-154.501 -165.658)" fill="#eabd70"/>
    </g>
    <path id="Path_624" data-name="Path 624" d="M164.137,137.859l3.19,2.279s13.118,31.2,12.864,33.739-2.96,4.27-4.991,3.508-9.318-18.75-9.318-18.75Z" transform="translate(-128.079 -116.623)" fill="#98acf4"/>
    <path id="Path_625" data-name="Path 625" d="M183.984,140.468s10.369-3.3,14.613-2.24,3.977,7.016,4.331,8.431-2.279,35.321-2.279,35.321S184.787,194.429,177,190.537c-5.619-2.81-6.073-5.989-5.891-7.538a19.066,19.066,0,0,0,.171-2.82l4.66-33.145Z" transform="translate(-161.629 -116.536)" fill="#c0cbff"/>
    <ellipse id="Ellipse_11" data-name="Ellipse 11" cx="10.314" cy="10.314" rx="10.314" ry="10.314" transform="matrix(-0.957, -0.291, 0.291, -0.957, 40.18, 25.734)" fill="#91616a"/>
    <path id="Path_626" data-name="Path 626" d="M186.568,134.523l-3.511,10.61h0a6.614,6.614,0,0,1-7.4.767h0a1.631,1.631,0,0,1-.807-1.836l2.617-10.3Z" transform="translate(-151.011 -118.884)" fill="#91616a"/>
    <path id="Path_627" data-name="Path 627" d="M166.71,168.217h0a5.143,5.143,0,0,1-5.129-5.127h0a5.143,5.143,0,0,1,5.129-5.129h0a5.143,5.143,0,0,1,5.129,5.129h0A5.143,5.143,0,0,1,166.71,168.217Z" transform="translate(-115.756 -105.521)" fill="#98acf4"/>
    <path id="Path_628" data-name="Path 628" d="M165.887,162.307a3.811,3.811,0,1,1-3.811-3.809A3.811,3.811,0,0,1,165.887,162.307Z" transform="translate(-104.657 -105.225)" fill="#91616a"/>
    <path id="Path_629" data-name="Path 629" d="M172.873,179.922a4.256,4.256,0,0,0-.028.487c0,.025,0,.051,0,.078a4.845,4.845,0,0,0,.04.577l.008.054c.188,1.34,1,3.145,3.513,4.935l0,0a40.694,40.694,0,0,0,4.357,1.97c6.242.761,16.276-5.938,21.223-9.6a18.9,18.9,0,0,0-1.262-2.591l-19.048-8.379-4.477-22.7-.5-1.164,1,.366-4.66,33.145A19.065,19.065,0,0,1,172.873,179.922Z" transform="translate(-163.387 -113.458)" fill="#98acf4"/>
    <path id="Path_630" data-name="Path 630" d="M194.937,160.269s9.908-19.612,7.434-20.673c0,0-8.747,1.968-10.515,5.858s-12.352,29.095-11.821,32.454,3.774,4.542,12.442,6.827a105.063,105.063,0,0,0,14.682,2.813l.323-3.715-16.1-9.623Z" transform="translate(-180.016 -115.664)" fill="#c0cbff"/>
    <path id="Path_631" data-name="Path 631" d="M179.228,160.393l-19.109,1.526s-6.456,3.825-6.217,6.693,5.737,2.87,5.737,2.87l10.521,6.7Z" transform="translate(-111.217 -104.178)" fill="#ebefff"/>
    <path id="Path_632" data-name="Path 632" d="M166.348,172.94a6.313,6.313,0,0,1,1.293-4.523c2.979-3.829,8.815-7.928,11.568-7.928l-18.077,1.377s-8.37,2.869-6.217,6.694a5.213,5.213,0,0,0,5.737,2.87Z" transform="translate(-112.229 -104.125)" fill="#fff"/>
    <path id="Path_633" data-name="Path 633" d="M191.179,174.523s-3.944-7.117-8.314-7.373a28.89,28.89,0,0,1-7.558-1.437s-9.312-.883-13.218,3.747l-2.1,2.53Z" transform="translate(-132.621 -101.278)" fill="#fff"/>
    <g id="Group_216" data-name="Group 216" transform="translate(24.174 54.641)">
      <path id="Path_634" data-name="Path 634" d="M187.662,179.492l-34.526-3.781a.707.707,0,1,1,.154-1.406l33.6,3.679,10.29-18.244a.708.708,0,0,1,1.233.7Z" transform="translate(-152.504 -159.379)" fill="#242489"/>
    </g>
    <path id="Path_635" data-name="Path 635" d="M186.078,170.62a3.811,3.811,0,1,1-3.811-3.811A3.81,3.81,0,0,1,186.078,170.62Z" transform="translate(-156.191 -100.634)" fill="#91616a"/>
    <path id="Path_636" data-name="Path 636" d="M162.263,169.7s18.8-3.912,21.487-1.635,3.969,3.62,3.969,3.62l.483,1.891-28.216-3Z" transform="translate(-129.644 -100.333)" fill="#ebefff"/>
    <path id="Path_637" data-name="Path 637" d="M182.544,139.213a6.934,6.934,0,0,0,.107-2.24,2.352,2.352,0,0,0-1.225-1.784,2.434,2.434,0,0,0-1.13-.177,2.767,2.767,0,0,0-2.082.981,2.8,2.8,0,0,0-.4.795,4.513,4.513,0,0,0,1.649,5.02,2.739,2.739,0,0,1-1.559,1.128,7.541,7.541,0,0,1-1.8.568c-.787,1.389-.338,3.395-.085,4.971s-.067,2.544.411,4.067c1.135,3.609,1.74,7.513.79,11.175-1.175-2.332-3.493-3.8-5.227-5.754a10.71,10.71,0,0,1-2.785-8.028,8.292,8.292,0,0,1,4.831-6.785c-2.1-2.321-2.682-5.886-2.144-8.968a10.5,10.5,0,0,1,5.318-7.341,15.263,15.263,0,0,1,6.29-1.546,13.661,13.661,0,0,1,3.165.116,10.815,10.815,0,0,1,6.586,4.241,7.971,7.971,0,0,1,1.532,7.6,4.529,4.529,0,0,0-3.857-1.371c-1.1.273-4.154,3.3-5.924,3.569C184.237,139.562,183.113,139.745,182.544,139.213Z" transform="translate(-150.871 -123.584)" fill="#37354c"/>
    <path id="Path_638" data-name="Path 638" d="M185.881,137.263a1.473,1.473,0,0,1,.492.539,1.161,1.161,0,0,1-.759,1.433,3.379,3.379,0,0,1-1.793,0l-1.146-.211a2.469,2.469,0,0,1-1.093-.391,1.441,1.441,0,0,1-.441-1.5C181.722,135.051,184.755,136.421,185.881,137.263Z" transform="translate(-160.64 -117.631)" fill="#4341aa"/>
  </g>
</svg>
