<svg xmlns="http://www.w3.org/2000/svg" width="284.146" height="160.561" viewBox="0 0 284.146 160.561">
  <g id="Group_656" data-name="Group 656" transform="translate(-52.306 -303.601)">
    <path id="Path_1069" data-name="Path 1069" d="M1024.4,1451.39s-3.536-6.2,9.061-5.849,11.7,3.135,23.78,2.49,29.823-2.564,23.445,5.56S1027.326,1460.333,1024.4,1451.39Z" transform="translate(-867.946 -1020.385)" fill="#201d37"/>
    <g id="Group_296" data-name="Group 296" transform="translate(164 304.025)">
      <path id="Path_1545" data-name="Path 1545" d="M539.532,399.361s5.5,7.642,5.17,9.788-4.024,1.743-8.181-.067-6.677-3.009-7.28-4.551a6.515,6.515,0,0,1-.229-3.294Z" transform="translate(-512.342 -283.869)" fill="#24406b"/>
      <path id="Path_1546" data-name="Path 1546" d="M534.112,402.923s5.5,7.644,5.169,9.79-4.024,1.743-8.181-.066-6.676-3.009-7.28-4.551a6.536,6.536,0,0,1-.229-3.294Z" transform="translate(-516.41 -281.196)" fill="#24406b"/>
      <path id="Path_1547" data-name="Path 1547" d="M521.933,383.34l2.816,47.072s1.1,1.206,4.707.8a10.287,10.287,0,0,0,5.814-2.681l.341-4.224a12.211,12.211,0,0,0,4.827.6,8.49,8.49,0,0,0,4.695-2.011l.67-47.34-1.677-6.772-20.986,6.772Z" transform="translate(-517.568 -306.807)" fill="#305998"/>
      <path id="Path_1548" data-name="Path 1548" d="M533.462,349.656s3.74,1.409,5.046,8.274a38.976,38.976,0,0,1,.436,12.237l10.225-.543,1.325,6.544a1.289,1.289,0,0,1-1.138,1.547c-3.641.359-13.155,1.148-15.042-.147C531.97,375.96,528.825,345.806,533.462,349.656Z" transform="translate(-510.708 -321.418)" fill="#57cef4"/>
      <path id="Path_1549" data-name="Path 1549" d="M526.013,351.712l9.555-.907s4.325,12.17,4.626,16.5,0,16.639,0,16.639l-10.057,5.806Z" transform="translate(-514.507 -320.302)" fill="#f6eddc"/>
      <path id="Path_1550" data-name="Path 1550" d="M532.1,348.8a10.069,10.069,0,0,1,5.365,5.291c1.743,4.022,2.414,10.325,2.144,14.482-.18,2.816-.609,7.047-.866,9.485a14.965,14.965,0,0,0,.094,3.856l1.442,9.338-4.827,4.694s-.938-32.336-1.476-36.225a10.534,10.534,0,0,0-3.251-6.168V350.9Z" transform="translate(-510.971 -321.808)" fill="#2071f0"/>
      <path id="Path_1551" data-name="Path 1551" d="M543.618,353.925a5.294,5.294,0,0,0,3.219-1.194,3.666,3.666,0,0,0,1.407-2.529s1.546-.224,1.861-2.815a3.2,3.2,0,0,0-1.692-3.453s2.065-2.624.436-4.292a1.877,1.877,0,0,0-2.193-.623,4.02,4.02,0,0,0-2.536-3.8,6.366,6.366,0,0,0-4.523,0s-1.108-2.113-4.526-1.81-3.42,1.81-3.42,1.81-4.325-.6-6.234,1.206-1.911,3.219-1.911,3.219a6.141,6.141,0,0,0-3.923,4.425,6.584,6.584,0,0,0,.746,4.7,3.43,3.43,0,0,0-.746,2.141,2.1,2.1,0,0,0,.893,1.824,3.83,3.83,0,0,0-.189,3.1,4.4,4.4,0,0,0,2.515,1.911,5.845,5.845,0,0,0,2.212,3.52,3.248,3.248,0,0,0,3.333.329s1.192,2.206,3.3,1.794S543.618,353.925,543.618,353.925Z" transform="translate(-519.439 -333.378)" fill="#55362c"/>
      <path id="Path_1552" data-name="Path 1552" d="M534.26,354.178V358.1l-1.017,1.609h-4.917l-2.313-3.218V346.232l4.124-1.8Z" transform="translate(-514.507 -325.082)" fill="#e18870"/>
      <path id="Path_1553" data-name="Path 1553" d="M537.956,350.063s.268,4.827-1.341,7.108-3.084,2.146-5.1,1.876-3.353-1.341-4.56-3.755-1.208-9.793.8-12.342,10.092-6.432,10.21-1.873S537.956,350.063,537.956,350.063Z" transform="translate(-514.414 -329.181)" fill="#f79a7f"/>
      <path id="Path_1554" data-name="Path 1554" d="M526.992,344.435a2.381,2.381,0,0,0-1.9,2.12c-.128,1.215.385,3.291,2.064,2.456S526.992,344.435,526.992,344.435Z" transform="translate(-515.214 -325.082)" fill="#f79a7f"/>
      <path id="Path_1555" data-name="Path 1555" d="M529.707,351.323s4.659,5.162,5.33,10.527.828,36.409.828,36.409a31.24,31.24,0,0,1-7.131,1.876c-3.084.27-6.973-2.414-6.973-2.414a105.674,105.674,0,0,0,.805-13.912c-.184-8.37-1.475-16.835-1.475-19.814C521.09,358.631,523.784,354.741,529.707,351.323Z" transform="translate(-518.201 -319.913)" fill="#2071f0"/>
      <path id="Path_1556" data-name="Path 1556" d="M523.9,355.169s3.257-1.448,4.738,8.451a72.918,72.918,0,0,1,.838,12.2l6.774-8.515,1.791,5.577a3.109,3.109,0,0,1-.423,2.753c-2.374,3.347-8.867,11.915-11.794,9.907C523.474,383.93,518.443,356.94,523.9,355.169Z" transform="translate(-517.931 -317.083)" fill="#57cef4"/>
      <path id="Path_1557" data-name="Path 1557" d="M530.223,365.558s0-4.286,1.022-5.68,2.974-4.094,3.644-3.054c.452.7-1.666,3.347-1.666,3.347a2.381,2.381,0,0,1,1.759.807,6.756,6.756,0,0,1,1.466,5.5c-.438,2.487-4.754,6.352-4.754,6.352S528.1,370.359,530.223,365.558Z" transform="translate(-511.85 -315.96)" fill="#f79a7f"/>
      <path id="Path_1558" data-name="Path 1558" d="M541.243,362.2s1.5-3.644,2.787-3.4.245,2.144.245,2.144,4.288-1.715,6-1.164,1.164,4.988-.8,7.15-6.768,2.527-6.768,2.527S539.373,367.067,541.243,362.2Z" transform="translate(-503.506 -314.314)" fill="#f79a7f"/>
    </g>
    <line id="Line_226" data-name="Line 226" y1="1.171" x2="165.054" transform="translate(108.055 395.493)" fill="none" stroke="#f7f7f7" stroke-linecap="round" stroke-width="2"/>
    <g id="Group_287" data-name="Group 287" transform="translate(52.306 303.601)">
      <g id="Group_200" data-name="Group 200" transform="translate(97.262 75.715)">
        <path id="Path_1048" data-name="Path 1048" d="M1414.346,1182.39c-.021-.049-.053-3.92-1.036-5.755,0,0-.184-.432,0-.341a3.84,3.84,0,0,1,1.113,1.789,4.1,4.1,0,0,0,.814,1.527c.341.564.394,4.116.38,4.169a.878.878,0,0,1-.551,0C1415.041,1183.714,1414.346,1182.39,1414.346,1182.39Z" transform="translate(-1412.001 -1172.262)" fill="#33624b"/>
        <path id="Path_1049" data-name="Path 1049" d="M1418.226,1186.209c0,.014-.04.025-.094.032l-1-3.978a10.589,10.589,0,0,0-.766-3.057,3.952,3.952,0,0,1,.662,1.308,4.084,4.084,0,0,0,.814,1.527C1418.187,1182.6,1418.24,1186.157,1418.226,1186.209Z" transform="translate(-1414.612 -1174.692)" fill="#224031"/>
        <path id="Path_1050" data-name="Path 1050" d="M1427.14,1165.247s-.268-2.048-.268-2.664a15.887,15.887,0,0,1,0-1.98c.079-.065.116-.065.117.223a45.027,45.027,0,0,0,1.089,4.759c.21.406-.1.826.2,1.966s1.331,2.53.587,2.4-2.042-.669-1.832-1.809A15.388,15.388,0,0,0,1427.14,1165.247Z" transform="translate(-1423.307 -1159.206)" fill="#33624b"/>
        <path id="Path_1051" data-name="Path 1051" d="M1433.93,1173.821a20.82,20.82,0,0,1-.146-3.343,5.4,5.4,0,0,0,.314-2.2,5.563,5.563,0,0,1,.2-2.307,4.2,4.2,0,0,1,.2,1.533c0,.551.17,2.53.223,2.845A35,35,0,0,1,1433.93,1173.821Z" transform="translate(-1429.04 -1163.693)" fill="#224031"/>
        <path id="Path_1052" data-name="Path 1052" d="M1432.26,1162.643a12.079,12.079,0,0,1,.6-3.579,10.593,10.593,0,0,0,.76-3.579c0-.642.3-2.735.3-2.875s.065-.14.157.1,0,3.33,0,4.339a23.913,23.913,0,0,1-.216,2.7c-.073.642-1.2,4.428-1.514,4.331s-.721-.608-.6-.739S1432.26,1162.643,1432.26,1162.643Z" transform="translate(-1427.37 -1152.515)" fill="#33624b"/>
        <path id="Path_1053" data-name="Path 1053" d="M1454.184,1153.1s-.092-.065-.19.059a56.136,56.136,0,0,0-3.31,5.371l.079,1.374.97-1.94Z" transform="translate(-1443.122 -1152.984)" fill="#33624b"/>
        <path id="Path_1054" data-name="Path 1054" d="M1411.6,1191.814c-.047-.008-.1-.018-.147-.029-.066-.015-.135-.032-.2-.051-.319-.09-.483.156-.578.051-.131-.144-.88-1.675-1.156-2.055a4.214,4.214,0,0,1-.472-1.232,8.923,8.923,0,0,1-.472-1.612,2.114,2.114,0,0,0-.04-.589c-.032-.265-.073-.529-.111-.793-.009-.065-.041-.165-.023-.2.01-.018.031-.021.076.005.123.071.212.35.268.476a3.024,3.024,0,0,0,.3.642,1.756,1.756,0,0,1,.3.551,4.548,4.548,0,0,0,.354.813c.145.236.695,1.193.865,1.507.106.2.481,1.122.749,1.794.01.024.019.048.028.071C1411.487,1191.535,1411.6,1191.814,1411.6,1191.814Z" transform="translate(-1407.98 -1179.746)" fill="#448465"/>
        <path id="Path_1055" data-name="Path 1055" d="M1410.931,1163.81l-.87.841-.192-.013-.206-.015-.315-.022a36.126,36.126,0,0,0-.339-4.168,30.612,30.612,0,0,0-1.307-4.9,22.4,22.4,0,0,0-1.475-2.507s-.443-.4-.167-.433,1.1,1.022,1.327,1.219a20.026,20.026,0,0,1,1.376,2.36c.226.443.629,1.091.718,1.327s.472,1.681.531,1.907a1.839,1.839,0,0,0,.216.679.5.5,0,0,1,.059.482c-.03.167.167.413.206.491s0,.187,0,.423.285.413.236.619a.577.577,0,0,0,.1.482c.088.148-.039.266,0,.492.015.084.033.207.05.327.006.044.012.088.018.13C1410.916,1163.687,1410.931,1163.81,1410.931,1163.81Z" transform="translate(-1405.969 -1152.583)" fill="#448465"/>
        <path id="Path_1056" data-name="Path 1056" d="M1449.625,1159.67a1.448,1.448,0,0,0,.215-.472c.026-.2.065-.157.236-.367a.578.578,0,0,0,.17-.419c0-.092.013-.1.118-.223a.8.8,0,0,0,.157-.393c.013-.092,0,.092.118-.131s.118-.5.236-.564.223-.144.236-.236-.092-.21,0-.288.17-.052.21-.144a2.011,2.011,0,0,0,.092-.354.712.712,0,0,1,.17-.275.5.5,0,0,0,.092-.236c.013-.078.218-.039.22-.17s-.042-.223,0-.288.121-.066.16-.157-.053-.171,0-.262.157-.092.183-.183a.75.75,0,0,1,.118-.288c.079-.1-.026.131.157-.171s.354-.8.511-.865a.3.3,0,0,1-.065.2,5.507,5.507,0,0,0-.455,1.111c-.138.482-1.694,3.176-2.1,4.369a20.43,20.43,0,0,1-1.115,2.713Z" transform="translate(-1441.962 -1153.068)" fill="#448465"/>
        <path id="Path_1057" data-name="Path 1057" d="M1447.313,1177.847s-.334-.032-.738.744-1.311,2.723-1.585,3.186-.6,2.8-1.031,3.136-.02.383.334.088a11.36,11.36,0,0,0,1.249-2.743c.122-.374.588-1.984,1.061-3.161C1446.853,1178.478,1447.069,1177.949,1447.313,1177.847Z" transform="translate(-1437.38 -1173.562)" fill="#33624b"/>
        <path id="Path_1058" data-name="Path 1058" d="M1444.153,1178.2c-.458.459-1.1,3.461-1.547,5.2a2.681,2.681,0,0,1-1.612,2.084c-.08.024-.734.144-.734.144h-.008l.082-.032h0c1.121-.52,1.967-2.772,2.059-2.955s0-.17,0-.274.131-.081.2-.211a1,1,0,0,0,.039-.49c-.013-.176.065-.139.131-.231a1.459,1.459,0,0,0,.105-.6c-.013-.144.026-.2.157-.275s.131-.275.131-.485.066-.236.2-.354.563-1.416.747-1.678S1444.612,1177.74,1444.153,1178.2Z" transform="translate(-1434.454 -1173.563)" fill="#448465"/>
        <path id="Path_1059" data-name="Path 1059" d="M1433.646,1176.777c-.078.374-.155,2.751-1.692,3.453h0l-.074.032h-1.713c.015-.019.267-.335.552-.723.092-.126.188-.26.281-.392a6.127,6.127,0,0,0,.473-.772,1.824,1.824,0,0,0,.25-.852c.026-.131.105-.052.2-.223a1.266,1.266,0,0,0,.066-.564c0-.118.2-.3.249-.393a3.4,3.4,0,0,1,.262-.826l.073-.092h0a1.381,1.381,0,0,0,.243-.353,5.253,5.253,0,0,0,.629-2.111c-.052-.773.066-1.612.17-1.573a6.747,6.747,0,0,1,.131,1.534C1433.764,1173.369,1433.725,1176.4,1433.646,1176.777Z" transform="translate(-1426.071 -1168.196)" fill="#448465"/>
        <path id="Path_1060" data-name="Path 1060" d="M1429.045,1216.635a4.871,4.871,0,0,1-1.026,1.1l-.205-.014a3.94,3.94,0,0,0,1.214-1.218Z" transform="translate(-1424.12 -1205.683)" fill="#33624b" opacity="0.8"/>
        <path id="Path_1061" data-name="Path 1061" d="M1425.483,1220.289c-.067-.015-.135-.032-.2-.051a5.086,5.086,0,0,1,.064-.643l.028.071C1425.386,1219.744,1425.448,1220.093,1425.483,1220.289Z" transform="translate(-1422.013 -1208.25)" fill="#33624b" opacity="0.8"/>
        <path id="Path_1062" data-name="Path 1062" d="M1441.556,1214.663a5.357,5.357,0,0,1-1.259,1.315,4.3,4.3,0,0,0,1.476-1.606Z" transform="translate(-1434.491 -1203.911)" fill="#33624b"/>
        <g id="Group_199" data-name="Group 199" transform="translate(7.606 2.117)" opacity="0.6">
          <path id="Path_1063" data-name="Path 1063" d="M1453.249,1165.033c0,.056.02.125.018.211,0,.131-.207.092-.221.171a.49.49,0,0,1-.091.236.7.7,0,0,0-.17.275,2.084,2.084,0,0,1-.092.354c-.039.091-.118.065-.21.144s.013.2,0,.288-.118.17-.236.236-.118.341-.236.563-.105.04-.118.131a.8.8,0,0,1-.157.393c-.105.118-.118.131-.118.223a.578.578,0,0,1-.17.42c-.171.21-.21.17-.236.367a1.448,1.448,0,0,1-.215.472l-.056.316c0-.238.065-.857.069-.877S1452.269,1166.748,1453.249,1165.033Z" transform="translate(-1450.941 -1165.033)" fill="#224031"/>
        </g>
        <path id="Path_1064" data-name="Path 1064" d="M1422.569,1223.25v.808a.1.1,0,0,1-.1.1h-.008a.1.1,0,0,0-.1.084l-.36,2.146a2.142,2.142,0,0,1-2,1.785c-.036,0-.072,0-.109,0h-1.08a2.142,2.142,0,0,1-2.117-1.815l-.327-2.117a.1.1,0,0,0-.034-.061.1.1,0,0,0-.065-.024.1.1,0,0,1-.1-.1v-.808a.366.366,0,0,1,.366-.366h5.671A.366.366,0,0,1,1422.569,1223.25Z" transform="translate(-1414.442 -1210.984)" fill="#f4d892"/>
        <path id="Path_1065" data-name="Path 1065" d="M1438.366,1230.415a.1.1,0,0,0-.1.084l-.36,2.146a2.141,2.141,0,0,1-2,1.785,3.412,3.412,0,0,0,.934-3.286c-.181-.642-1.529-.729-1.529-.729Z" transform="translate(-1430.347 -1217.24)" fill="#efc764"/>
      </g>
      <path id="Path_1066" data-name="Path 1066" d="M1470.109,1529.852s6.236,11.332-15.977,10.684-20.635-5.725-41.931-4.549-52.587,4.684-41.34-10.155S1464.956,1513.519,1470.109,1529.852Z" transform="translate(-1208.503 -1380.002)" fill="#201d37"/>
      <path id="Path_1067" data-name="Path 1067" d="M1484.514,1307.276l-10.133-52.664a.36.36,0,0,0-.706.136l2.038,10.59a.36.36,0,0,0-.327-.211H1434.6l2-10.379a.36.36,0,0,0-.706-.135l-10.133,52.664a.36.36,0,0,0,.285.42.334.334,0,0,0,.069.007.36.36,0,0,0,.353-.292l8-41.565h40.927a.359.359,0,0,0,.358-.345l8.064,41.91a.36.36,0,0,0,.353.292.326.326,0,0,0,.068-.007A.36.36,0,0,0,1484.514,1307.276Z" transform="translate(-1256.076 -1162.559)" fill="#f7f7f7"/>
      <g id="Group_202" data-name="Group 202" transform="translate(175.224 73.498)">
        <path id="Path_1070" data-name="Path 1070" d="M1532.686,1244.864v.307a.532.532,0,0,1-.532.532h-27.683l5.928-.927Z" transform="translate(-1496.71 -1228.125)" fill="#545454"/>
        <g id="Group_201" data-name="Group 201" transform="translate(0 0)">
          <path id="Path_1071" data-name="Path 1071" d="M1472.25,1162.974l-6.548-15.513-7.126-1.137,7.762,17.577Z" transform="translate(-1458.576 -1146.324)" fill="#d6d8d9"/>
          <path id="Path_1072" data-name="Path 1072" d="M1472.672,1151.561c.207.44,5.859,14.1,5.859,14.1l-4.6.26-6.59-15.261Z" transform="translate(-1465.857 -1149.925)" fill="#545454"/>
          <path id="Path_1073" data-name="Path 1073" d="M1510.333,1244.776l22.286.088-1.7.555a5.779,5.779,0,0,1-1.789.284h-24.735Z" transform="translate(-1496.644 -1228.125)" fill="#d6d8d9"/>
          <path id="Path_1074" data-name="Path 1074" d="M1549.708,1246.4h8.634l-3.016-.3h-6.956Z" transform="translate(-1533.184 -1229.222)" fill="#545454"/>
          <path id="Path_1075" data-name="Path 1075" d="M1600.759,1246.4h.6l-2.981-.3h-1.137Z" transform="translate(-1573.792 -1229.222)" fill="#545454"/>
        </g>
      </g>
      <g id="Group_203" data-name="Group 203" transform="translate(243.191 74.945)">
        <ellipse id="Ellipse_78" data-name="Ellipse 78" cx="14.738" cy="2.219" rx="14.738" ry="2.219" transform="translate(1.562 59.233)" fill="#5960a3" opacity="0.2"/>
        <path id="Path_1076" data-name="Path 1076" d="M1900.722,1184.3c1.347,2.107,1.628,4.72,2.7,6.98a10.923,10.923,0,0,0,4.161,4.607,4.281,4.281,0,0,1,.99.685,1.649,1.649,0,0,1,.312.948c.185,1.656.208,3.338.259,5,.175,5.814.2,11.634.214,17.45q.006,2.192.006,4.384h.732c-.013-2.8-.171-5.616-.235-8.381-.173-7.4-.794-14.9-.5-22.286a10.567,10.567,0,0,0-.977-5.645,12.355,12.355,0,0,0-2.308-2.7,33.027,33.027,0,0,0-6.762-5.461,4.106,4.106,0,0,0,.289,2.685A16.754,16.754,0,0,0,1900.722,1184.3Z" transform="translate(-1892.658 -1175.651)" fill="#46a7f0"/>
        <path id="Path_1077" data-name="Path 1077" d="M1955.439,1203.588h1.183c.575-8.88,2.085-28.571,4.362-31.986.493,0,6.407-3.309,6.647-4.321a31.825,31.825,0,0,1,.745-4.252,18.457,18.457,0,0,0,1.152-4.648c.1-.972,1.442-2.386,1.1-3.324-.281-.774-2.535,1.267-3.379,2.112s-2.182,2.675-3.52,3.45-3.1,4.576-3.513,6.125a14.752,14.752,0,0,0,0,4.428s-3.674,15.845-4.226,24.577C1955.779,1199.111,1955.59,1201.688,1955.439,1203.588Z" transform="translate(-1939.376 -1154.885)" fill="#3a4774"/>
        <path id="Path_1078" data-name="Path 1078" d="M1876.577,1246.585c-.022,3.187-.037,5.364-.048,6.852h1.531c.283-5.647-.159-17.339-7.772-23.561,0,0,1.114-.144.7-2.02s-3.137-4.034-3.045-5.067c.086-.958-.794-1.793-1.22-2.676-.894-1.853-2.372-1.56-3.606-2.963-.329-.374-1.587-2.564-2.216-2.235s-.413,3.256-.363,3.592c.156,1.048.5,2.42,1.469,3.015,1.267.774,1.549,4.295,2.535,5s4.647,3.59,5.421,3.661S1876.648,1236.518,1876.577,1246.585Z" transform="translate(-1860.46 -1204.735)" fill="#3a4774"/>
        <path id="Path_1079" data-name="Path 1079" d="M1975.722,1238.647a13.628,13.628,0,0,1-2.375.743,4.535,4.535,0,0,0-1.617.531c-.46.309-.77.8-1.218,1.126a12.948,12.948,0,0,1-1.724.792,4.606,4.606,0,0,0-1.956,2.315c-.413.943-.641,1.955-.97,2.931a2.471,2.471,0,0,1-.412.829,2.9,2.9,0,0,1-.808.586,21.92,21.92,0,0,0-8.361,9.005,29.166,29.166,0,0,0-2.907,9.846,32.181,32.181,0,0,0-.224,4.86h1.506a38.081,38.081,0,0,1,.259-7.839,25.455,25.455,0,0,1,1.774-6.458,19.507,19.507,0,0,1,2.667-4.469,17.667,17.667,0,0,1,2.869-2.843,18.57,18.57,0,0,1,2.379-1.579c.579-.325,1.511-1.016,2.129-.941a5.908,5.908,0,0,0,2.491.155,4.314,4.314,0,0,0,1.541-1.033c1.51-1.357,3.069-2.667,4.439-4.166a14.258,14.258,0,0,0,3.179-5.141.435.435,0,0,0,.031-.193.31.31,0,0,0-.34-.227.941.941,0,0,0-.41.173A13.618,13.618,0,0,1,1975.722,1238.647Z" transform="translate(-1937.461 -1223.508)" fill="#419dee"/>
        <path id="Path_1080" data-name="Path 1080" d="M1873.065,1330.405c2.221,1.141,3.455,4.844,4.165,6.88.6,1.736.672,5.96.678,7.168h.7c.016-11.092-5.328-14.573-5.328-14.573-.124-4.042-3.394-4.227-4.967-4.227a14.89,14.89,0,0,1-4.226-1.018c-1.049-.308-1.574-.308-1.574.185s2.7,1.233,3.918,1.975c.154.093,4.474,2.992,5.044,3.224A9.144,9.144,0,0,0,1873.065,1330.405Z" transform="translate(-1862.167 -1295.751)" fill="#3a4774"/>
        <path id="Path_1081" data-name="Path 1081" d="M1974.265,1307.7a17,17,0,0,1-4.823,1.162c-1.8,0-5.527.211-5.667,4.823,0,0-6.112,3.981-6.079,16.673h.8c.006-1.314.076-6.222.774-8.225.809-2.323,2.218-6.547,4.752-7.85a10.413,10.413,0,0,0,1.813-.44c.651-.264,5.58-3.572,5.756-3.678,1.394-.846,4.47-1.69,4.47-2.253S1975.462,1307.343,1974.265,1307.7Z" transform="translate(-1941.251 -1281.651)" fill="#9780da"/>
        <path id="Path_1082" data-name="Path 1082" d="M1875.609,1279.974c.691-.092,3.729,13.859,2.782,19.619h.749c.05-1.94.138-12.115-3.2-19.854a7.329,7.329,0,0,1-.079-1.289,4.318,4.318,0,0,0-1.195-3.012,11.992,11.992,0,0,0-4.027-2.365c-1.526-.427-3.15-.4-4.65-.937-1.455-.516-3.333-2.3-3.474-1.5,0,0,2.534,4.834,3.708,5.257a18.2,18.2,0,0,1,4.647,2.44A10.452,10.452,0,0,0,1875.609,1279.974Z" transform="translate(-1862.167 -1250.89)" fill="#9780da"/>
        <path id="Path_1083" data-name="Path 1083" d="M1971.258,1214.083a.375.375,0,0,0-.043-.04c-2.616,2.168-6.382,2.21-9.41,3.751a20.651,20.651,0,0,0-4.075,3,5.566,5.566,0,0,0-1.438,1.633,4.352,4.352,0,0,0-.055,3.124,3.02,3.02,0,0,1,.166.772,2.6,2.6,0,0,1-.09.627,124.636,124.636,0,0,0-2.963,19.381c-.143,2.131-.231,4.269-.21,6.4h1.208c-.616-6.048.051-12.245.932-18.234.368-2.505.842-4.993,1.3-7.482a1.026,1.026,0,0,1,.127-.388c.223-.338.754-.288,1.1-.366a6.92,6.92,0,0,0,1.641-.7,25.646,25.646,0,0,0,11.654-10.639C1971.284,1214.675,1971.45,1214.3,1971.258,1214.083Z" transform="translate(-1937.463 -1204.038)" fill="#9780da"/>
        <path id="Path_1084" data-name="Path 1084" d="M1927.294,1435.642h-14.362s-.407,11.8,4.1,14.5a1.018,1.018,0,0,0,.522.143h5.11a1.017,1.017,0,0,0,.523-.143C1927.7,1447.441,1927.294,1435.642,1927.294,1435.642Z" transform="translate(-1904.05 -1388.16)" fill="#fcd6cb"/>
        <path id="Path_1085" data-name="Path 1085" d="M1959.679,1450.142a1.021,1.021,0,0,1-.523.144h-2.319a1.017,1.017,0,0,0,.522-.144c4.511-2.7,4.1-14.5,4.1-14.5h2.317S1964.19,1447.441,1959.679,1450.142Z" transform="translate(-1940.538 -1388.16)" fill="#f1a498"/>
        <path id="Path_1086" data-name="Path 1086" d="M1862.756,1325.56a21.483,21.483,0,0,1,2.965.706c.484.156.96.335,1.439.5s.955.347,1.428.532a15.207,15.207,0,0,1,1.4.615c.23.111.452.236.676.358s.438.263.649.408a7.212,7.212,0,0,1,1.18.978,3.805,3.805,0,0,1,.834,1.277l-.013.005a4.213,4.213,0,0,0-.9-1.205,8.681,8.681,0,0,0-1.183-.935,18.36,18.36,0,0,0-2.67-1.43c-.463-.206-.934-.4-1.415-.557s-.969-.3-1.456-.439c-.974-.28-1.95-.55-2.934-.8Z" transform="translate(-1862.365 -1296.695)" fill="#9780da"/>
        <path id="Path_1087" data-name="Path 1087" d="M1864.769,1271.517a3.215,3.215,0,0,0,.445.9c.05.068.1.138.149.2l.161.194a4.969,4.969,0,0,0,.36.35,4.814,4.814,0,0,0,.394.312l.213.133a2.045,2.045,0,0,0,.217.126c.15.074.3.159.453.218l.232.1c.078.031.159.054.239.081.315.114.646.2.971.291l.981.271c.654.183,1.305.377,1.945.609a11.854,11.854,0,0,1,1.853.857c.286.185.587.35.856.561.138.1.277.2.411.306l.386.337a11.006,11.006,0,0,1,2.473,3.227l-.012.007-.551-.854-.607-.812-.331-.384c-.113-.125-.214-.261-.338-.376l-.357-.358c-.06-.059-.117-.122-.18-.178l-.192-.165-.383-.33-.4-.3c-.263-.212-.557-.379-.838-.565a13.981,13.981,0,0,0-1.814-.9,15.914,15.914,0,0,0-1.93-.633c-.655-.179-1.322-.3-1.976-.5a4.664,4.664,0,0,1-1.782-1,3.659,3.659,0,0,1-.66-.786,2.946,2.946,0,0,1-.4-.94Z" transform="translate(-1864.029 -1251.792)" fill="#c2baef"/>
        <path id="Path_1088" data-name="Path 1088" d="M1869.121,1227.191a8.475,8.475,0,0,0-.473-1.521,14.944,14.944,0,0,0-.728-1.529,13.813,13.813,0,0,0-.9-1.439,8.979,8.979,0,0,0-1.088-1.3,5.853,5.853,0,0,0-.642-.555,4.974,4.974,0,0,1-.67-.507,4.007,4.007,0,0,1-.867-1.415,12.358,12.358,0,0,1-.731-3.269h-.014a9.8,9.8,0,0,0,.163,1.684,7.817,7.817,0,0,0,.473,1.63,4.324,4.324,0,0,0,.942,1.405,6.951,6.951,0,0,0,.674.511,3.343,3.343,0,0,1,.32.272,4.181,4.181,0,0,1,.3.3,14.356,14.356,0,0,1,1.911,2.754c.268.493.528.991.755,1.5a10.41,10.41,0,0,1,.552,1.474Z" transform="translate(-1862.58 -1205.378)" fill="#9780da"/>
        <path id="Path_1089" data-name="Path 1089" d="M1899.609,1181.412a1.433,1.433,0,0,0,.146.253c.055.083.111.165.168.246l.348.484c.234.322.476.637.72.952q.729.943,1.518,1.838c.262.3.531.59.814.868.141.14.288.273.438.4a5.957,5.957,0,0,1,.454.391,12.039,12.039,0,0,1,1.452,1.9c.433.67.827,1.365,1.191,2.075s.7,1.433,1,2.172a21.275,21.275,0,0,1,.8,2.258,8.456,8.456,0,0,1,.387,2.358h-.014a6.386,6.386,0,0,0-.166-1.177c-.086-.387-.2-.769-.313-1.148-.238-.757-.522-1.5-.826-2.234a34.172,34.172,0,0,0-2.127-4.263c-.205-.34-.419-.676-.654-1a6.628,6.628,0,0,0-.767-.908,5.318,5.318,0,0,0-.457-.381c-.155-.126-.308-.255-.454-.391-.295-.27-.576-.554-.847-.847-.54-.588-1.038-1.213-1.517-1.85-.24-.319-.469-.646-.694-.975-.113-.164-.222-.332-.328-.5-.053-.085-.105-.169-.156-.255-.026-.043-.049-.087-.073-.131a.5.5,0,0,1-.059-.142Z" transform="translate(-1892.977 -1176.924)" fill="#3a4774"/>
        <path id="Path_1090" data-name="Path 1090" d="M1988.108,1214.605a3.351,3.351,0,0,1-.357.5c-.132.157-.271.307-.417.45a9.916,9.916,0,0,1-.928.8,16.454,16.454,0,0,1-2.056,1.336c-.721.387-1.461.733-2.207,1.062-.374.164-.74.342-1.109.516-.184.088-.36.19-.539.287s-.361.189-.532.3c-.346.214-.7.42-1.03.654-.167.116-.34.223-.5.346l-.489.364c-.166.117-.316.255-.475.381s-.316.256-.463.4l-.451.408-.433.428a14.367,14.367,0,0,0-1.545,1.876,8.652,8.652,0,0,0-1.1,2.165l-.014,0a7.934,7.934,0,0,1,1.022-2.222,12.677,12.677,0,0,1,1.533-1.917,16.6,16.6,0,0,1,3.908-2.944c.175-.106.362-.19.542-.286s.361-.19.545-.278l1.111-.516.553-.258c.185-.087.363-.185.544-.278.364-.182.716-.387,1.072-.584a21.053,21.053,0,0,0,2.048-1.32,11.231,11.231,0,0,0,.942-.771,5.368,5.368,0,0,0,.814-.9Z" transform="translate(-1954.349 -1204.5)" fill="#c2baef"/>
        <path id="Path_1091" data-name="Path 1091" d="M2001.223,1155.447c-1.033,1.169-2.023,2.373-2.99,3.6-.484.611-.969,1.224-1.415,1.862s-.875,1.291-1.275,1.961-.772,1.353-1.126,2.046-.666,1.407-.952,2.129a15.339,15.339,0,0,0-.677,2.226c-.074.35-.136.7-.176,1.06l-.077.059a9.084,9.084,0,0,1,.146-1.141,13.079,13.079,0,0,1,.649-2.257,23.239,23.239,0,0,1,2.149-4.164c.418-.659.859-1.3,1.3-1.949s.892-1.281,1.365-1.9.969-1.225,1.478-1.818,1.036-1.169,1.593-1.718Z" transform="translate(-1970.198 -1155.344)" fill="#9780da"/>
        <path id="Path_1092" data-name="Path 1092" d="M2042.694,1238.017a.017.017,0,0,1,.012.02.1.1,0,0,1-.005.017.313.313,0,0,1-.016.027c-.012.017-.024.034-.037.05-.026.032-.052.063-.08.093-.056.06-.112.119-.17.177q-.173.174-.353.339c-.24.22-.483.438-.733.647-.5.419-1.01.826-1.544,1.2a10.437,10.437,0,0,1-1.688.991c-.154.061-.307.107-.453.179s-.289.147-.43.227c-.282.159-.555.338-.824.519a30.486,30.486,0,0,0-3.06,2.406q-.36.327-.706.668c-.231.227-.456.461-.667.706a7.226,7.226,0,0,0-.6.765,3.047,3.047,0,0,0-.424.868l-.014,0a2.956,2.956,0,0,1,.377-.9,6.754,6.754,0,0,1,.573-.8,13.486,13.486,0,0,1,1.36-1.411c.482-.441.987-.855,1.508-1.249s1.055-.768,1.608-1.114c.275-.175.558-.338.842-.5.143-.079.288-.153.436-.224s.3-.124.452-.184a5.471,5.471,0,0,0,.845-.478c.271-.179.533-.369.794-.563q.783-.579,1.543-1.19c.252-.2.506-.408.753-.619l.369-.319c.061-.054.12-.109.179-.165.029-.028.058-.057.086-.086s.027-.03.039-.045.027-.04.022-.039Z" transform="translate(-2002.08 -1223.957)" fill="#3a4774"/>
        <path id="Path_1093" data-name="Path 1093" d="M2008.382,1308.025c-1.041.4-2.087.787-3.134,1.167-.525.188-1.053.367-1.569.579-.26.1-.512.218-.768.33l-.766.338a28.6,28.6,0,0,0-2.985,1.485c-.239.141-.469.3-.7.453a6.729,6.729,0,0,0-.652.512,4.184,4.184,0,0,0-1.025,1.292l-.013-.005a3.845,3.845,0,0,1,.963-1.368,7.852,7.852,0,0,1,1.348-1.008,14.339,14.339,0,0,1,1.487-.781c.508-.235,1.024-.448,1.544-.651s1.033-.417,1.545-.642,1.026-.439,1.546-.643q1.563-.6,3.171-1.071Z" transform="translate(-1973.72 -1282.115)" fill="#c2baef"/>
      </g>
      <g id="Group_271" data-name="Group 271" transform="translate(239.719 114.557)">
        <g id="Group_270" data-name="Group 270">
          <path id="Path_1150" data-name="Path 1150" d="M1845.235,1419.333l-4.958-30.081a.176.176,0,0,0-.347.057l4.948,30.023Z" transform="translate(-1839.927 -1389.106)" fill="#007aff"/>
        </g>
      </g>
      <g id="Group_273" data-name="Group 273" transform="translate(226.977 114.557)">
        <g id="Group_272" data-name="Group 272">
          <path id="Path_1151" data-name="Path 1151" d="M1764.943,1419.333l4.948-30.024a.176.176,0,1,0-.347-.057l-4.958,30.081Z" transform="translate(-1764.586 -1389.105)" fill="#007aff"/>
        </g>
      </g>
      <g id="Group_275" data-name="Group 275" transform="translate(233.147 114.051)">
        <g id="Group_274" data-name="Group 274">
          <path id="Path_1152" data-name="Path 1152" d="M1801.422,1416.844l.137-30.558a.176.176,0,0,0-.175-.177h0a.176.176,0,0,0-.176.175l-.137,30.559Z" transform="translate(-1801.071 -1386.11)" fill="#007aff"/>
        </g>
      </g>
      <g id="Group_277" data-name="Group 277" transform="translate(238.746 114.826)">
        <g id="Group_276" data-name="Group 276">
          <path id="Path_1153" data-name="Path 1153" d="M1834.528,1420.653l.134-29.782a.176.176,0,0,0-.175-.177h0a.176.176,0,0,0-.176.175l-.133,29.784Z" transform="translate(-1834.176 -1390.694)" fill="#007aff"/>
        </g>
      </g>
      <g id="Group_278" data-name="Group 278" transform="translate(221.328 109.111)">
        <path id="Path_1154" data-name="Path 1154" d="M1760.375,1359.414c0,.705-.86,1.363-2.341,1.913a31.093,31.093,0,0,1-8.061,1.462q-.173.016-.354.025c-.176.012-.354.023-.533.033l-.352.019c-.955.047-1.944.072-2.957.072q-1.17,0-2.291-.043c-.118,0-.236-.008-.351-.015q-.53-.021-1.044-.056l-.349-.023a30.729,30.729,0,0,1-8.371-1.532c-1.387-.54-2.188-1.175-2.188-1.855,0-.033,0-.066,0-.095a.972.972,0,0,1,.13-.383c.4-.474,1.669-.9,3.544-1.243a64.951,64.951,0,0,1,10.917-.794,62,62,0,0,1,11.5.9,6.1,6.1,0,0,1,2.968,1.133.966.966,0,0,1,.13.383C1760.373,1359.348,1760.375,1359.382,1760.375,1359.414Z" transform="translate(-1731.183 -1356.9)" fill="#007aff"/>
        <path id="Path_1155" data-name="Path 1155" d="M1760.375,1359.253c0,.021,0,.046,0,.066-.072.422-.835.814-2.111,1.152a69.323,69.323,0,0,1-24.933.01c-1.295-.341-2.068-.738-2.14-1.162,0-.021,0-.046,0-.066a.475.475,0,0,1,.135-.316c.4-.474,1.669-.9,3.544-1.243a64.951,64.951,0,0,1,10.917-.794,62,62,0,0,1,11.5.9,6.1,6.1,0,0,1,2.968,1.133A.475.475,0,0,1,1760.375,1359.253Z" transform="translate(-1731.183 -1356.9)" fill="#007aff"/>
      </g>
      <g id="Group_279" data-name="Group 279" transform="translate(230.184 125.168)">
        <path id="Path_1156" data-name="Path 1156" d="M1796.664,1462.663a.144.144,0,0,1-.091-.032L1783.6,1452.1a.144.144,0,0,1,.181-.223l12.969,10.531a.144.144,0,0,1-.091.256Z" transform="translate(-1783.551 -1451.844)" fill="#007aff"/>
      </g>
      <g id="Group_280" data-name="Group 280" transform="translate(228.491 125.168)">
        <path id="Path_1157" data-name="Path 1157" d="M1773.681,1462.663a.144.144,0,0,1-.091-.256l12.969-10.531a.144.144,0,0,1,.181.223l-12.969,10.531A.143.143,0,0,1,1773.681,1462.663Z" transform="translate(-1773.537 -1451.845)" fill="#007aff"/>
      </g>
      <path id="Path_1158" data-name="Path 1158" d="M1768.7,1360.471a69.324,69.324,0,0,1-24.933.01,3.676,3.676,0,0,1,1.534-2.788,64.948,64.948,0,0,1,10.917-.794,62,62,0,0,1,11.5.9A4.509,4.509,0,0,1,1768.7,1360.471Z" transform="translate(-1520.31 -1247.789)" fill="#007aff" opacity="0.5"/>
      <path id="Path_1159" data-name="Path 1159" d="M1736.634,990.737a3.12,3.12,0,0,1-.705,1.845c-.79,1.148-1.992,2.28-2.258,3.082-.414,1.241.673,3.655.673,3.655s-.5,2.481-1.95,3.2a2.02,2.02,0,0,1-.292.117c-1.63.489-5.654-.435-5.084-2.15a4.12,4.12,0,0,0,.166-1.617c-.109-1.3-.166-2.415-.166-2.415a3.631,3.631,0,0,1-3.651.274,9.416,9.416,0,0,1-2.068-2.894,7.038,7.038,0,0,1-.685-3.687,3.362,3.362,0,0,0,0-1.553,9.591,9.591,0,0,1,0-3.343,21.11,21.11,0,0,1,.532-2.149,9.664,9.664,0,0,1,.775-2.08,2,2,0,0,1,1.76-1.068c2.521-.259,5.458-.961,7.844.232,2.237,1,3.238,4.708,4.282,5.274C1738.288,986.807,1736.531,989.082,1736.634,990.737Z" transform="translate(-1500.955 -934.23)" fill="#fcd6cb"/>
      <path id="Path_1160" data-name="Path 1160" d="M1791.4,1063.511s-.5,2.481-1.95,3.205a2.047,2.047,0,0,1-.293.116c-.037-.083-.013-.188.087-.316,1.24-1.615.9-1.522.527-4.9-.362-3.327,3.052-4.715,3.214-4.839-.79,1.148-1.992,2.279-2.258,3.081C1790.313,1061.1,1791.4,1063.511,1791.4,1063.511Z" transform="translate(-1558.011 -998.423)" fill="#f1a498" opacity="0.5"/>
      <path id="Path_1161" data-name="Path 1161" d="M1796.441,968.1a3.376,3.376,0,0,1,3.374-1.685c2.362.289,4.04,3.523,3.7,5.018s-1.5,2.652-3.528,1.489-3.548-4.422-3.548-4.422Z" transform="translate(-1564.077 -923.317)" fill="#1b274a"/>
      <path id="Path_1162" data-name="Path 1162" d="M1723.021,970.839s1.678-5.349,8.378-4.1,8.485,4.483,8.918,7.231-1.542,5.592-1.542,5.592-.289-3.712-3.061-1.3c-1.433,1.247-3.007-2.18-3.223-3.526S1724.043,969.873,1723.021,970.839Z" transform="translate(-1503.074 -923.458)" fill="#1b274a"/>
      <path id="Path_1163" data-name="Path 1163" d="M1717.773,985.221s-1.483-5.731,4.254-6.31,5.978,6.363,5.978,6.363l-3.76-.1-.434-2.266-.1,2.3-3.318.017-.338-1.253-.1,1.205-.385-.53-.1.53Z" transform="translate(-1498.57 -933.699)" fill="#192342"/>
      <path id="Path_1164" data-name="Path 1164" d="M1627.291,1061.594s0,.006,0,.009c-.027.086-.058.176-.093.265q-.117.295-.194.558a5.461,5.461,0,0,0-.112,2.407c.048.612-2.494.469-2.494.469l-.157-.657s-.414-.664-.976-1.384a9.867,9.867,0,0,0-.842-.966.006.006,0,0,1,0,0c-1.013-1.013-1.228-2.513-1.861-3.745-.581-1.133-1.834-2.411-.691-3.689s2.8.537,3.509,1.422c.184.228,1.443,2.519,1.724,2.153.472-.612.377-2.682,1.036-3.106s1.271-.188.988.658a3.272,3.272,0,0,0-.329,2.26,7.214,7.214,0,0,1,.623,2.242v0A3.218,3.218,0,0,1,1627.291,1061.594Z" transform="translate(-1416.979 -996.464)" fill="#fcd6cb"/>
      <path id="Path_1165" data-name="Path 1165" d="M1645.969,1101.76a5.461,5.461,0,0,0-.112,2.407c.048.612-2.494.469-2.494.469l-.157-.657s-.414-.664-.976-1.384a2.583,2.583,0,0,0,2.272.36A2.228,2.228,0,0,0,1645.969,1101.76Z" transform="translate(-1435.946 -1035.799)" fill="#f1a498" opacity="0.5"/>
      <g id="Group_281" data-name="Group 281" transform="translate(180.869 142.969)">
        <path id="Path_1166" data-name="Path 1166" d="M1509.129,1558.473c-.4.357-1.347,2.956-2.358,5.256-.822,1.874-1.689,3.549-2.343,3.658-1.223.2-2.37-1.415-3.226-2.056-1.757-1.315-3.9-1.624-5.807-2.649-1.3-.7-5.51-4.308-2.2-5.056a6.128,6.128,0,0,1,3.289.236,38.18,38.18,0,0,1,3.965,1.77c.622.282,1.266.654,1.932.275.426-.243,1.349-2.808,1.4-2.808C1503.781,1557.1,1509.858,1557.827,1509.129,1558.473Z" transform="translate(-1491.953 -1557.098)" fill="#fcd6cb"/>
        <path id="Path_1167" data-name="Path 1167" d="M1506.771,1565.686c-.822,1.874-1.689,3.549-2.343,3.658-1.223.2-2.37-1.415-3.226-2.056-1.757-1.315-3.9-1.624-5.807-2.65-1.3-.7-5.51-4.307-2.2-5.056a6.132,6.132,0,0,1,3.289.236c-.328,2.788,2.436,3.126,5.756,4.908A6.869,6.869,0,0,0,1506.771,1565.686Z" transform="translate(-1491.953 -1559.054)" fill="#1d274a"/>
      </g>
      <g id="Group_282" data-name="Group 282" transform="translate(213.392 143.05)">
        <path id="Path_1168" data-name="Path 1168" d="M1699.064,1567.386c-.846.846-2.653.223-3.685.2-2.116-.044-3.972.916-6.04,1.181-1.35.174-6.3-.248-4.8-2.437a2.944,2.944,0,0,1,.232-.293,5.916,5.916,0,0,1,2.712-1.659,36.844,36.844,0,0,1,4.1-.839c.646-.126,1.359-.2,1.668-.869.2-.429-.518-2.958-.476-2.986,0,0,5.173-2.838,4.964-1.922-.115.5.6,3.073,1.1,5.442v0c0,.007,0,.012,0,.019C1699.256,1565.148,1699.511,1566.936,1699.064,1567.386Z" transform="translate(-1684.262 -1557.578)" fill="#fcd6cb"/>
        <path id="Path_1169" data-name="Path 1169" d="M1699.064,1595.03c-.846.846-2.653.223-3.685.2-2.116-.044-3.972.917-6.04,1.181-1.35.174-6.3-.248-4.8-2.438a2.958,2.958,0,0,1,.232-.293,5.917,5.917,0,0,1,2.712-1.659c1.308,2.369,3.663,1.083,7.268.616a6.643,6.643,0,0,0,4.092-1.789c0,.007,0,.012,0,.019C1699.256,1592.792,1699.511,1594.58,1699.064,1595.03Z" transform="translate(-1684.262 -1585.222)" fill="#1d274a"/>
      </g>
      <path id="Path_1170" data-name="Path 1170" d="M1600.471,1262.29c-2.494,4.417-9.634,3.95-13.935,4.684-.375.064-1.721.232-3.4.486-1.82.275-4.03.653-5.827,1.115a17.445,17.445,0,0,0-1.82.556c-.993.374-1.613.79-1.553,1.234.277,2.068,9.376,31.019,9.376,31.846,0,.441-2.657.608-5.143.439-2.184-.149-4.235-.557-4.235-1.266,0-1.516-3.03-11.769-4.961-15.673-1.869-3.78-4.514-13.731-4.678-14.349a.025.025,0,0,1,0-.01c0-.015-.006-.021-.006-.021l0,.006-13.094,29.083s-2.19-.474-4.316-1.16c-2.006-.647-3.956-1.485-3.956-2.287,0-1.654,3.034-6.113,4.274-8.915s7.306-21.943,10.065-24.573,15.3-8.7,17.92-9.8,4.38-2.068,4.6-8.271l3.164-.194,3.667-.224,6.011-.368,3.275-.2a12.78,12.78,0,0,0,2.3,6.777C1600.376,1253.928,1602.344,1258.972,1600.471,1262.29Z" transform="translate(-1353.426 -1154.339)" fill="#34406b"/>
      <path id="Path_1171" data-name="Path 1171" d="M1763.838,1257.69l-2.469.743a7.173,7.173,0,0,0,2.754-1.679c.777-.837-.215-5.209-1.191-8.741l3.667-.223c0,.022,0,.048.006.073.113,1.576.1,4.1.07,6.076A3.985,3.985,0,0,1,1763.838,1257.69Z" transform="translate(-1534.936 -1157.132)" fill="#1d274a"/>
      <path id="Path_1172" data-name="Path 1172" d="M1798.06,1262.29c-2.494,4.417-9.634,3.95-13.935,4.684-.375.064-1.721.232-3.4.486.876-.558,3.681-.927,10.372-5.228,7.722-4.963-1.1-16.13-1.1-17.236,0,0,.081-.141.215-.368l3.276-.2a12.782,12.782,0,0,0,2.3,6.777C1797.965,1253.928,1799.934,1258.972,1798.06,1262.29Z" transform="translate(-1551.015 -1154.339)" fill="#1d274a"/>
      <path id="Path_1173" data-name="Path 1173" d="M1659.851,1361.577c-.016.077-.078.368-.18.835A4.643,4.643,0,0,1,1659.851,1361.577Z" transform="translate(-1450.438 -1251.675)" fill="#1d274a"/>
      <path id="Path_1174" data-name="Path 1174" d="M1583.111,1372.778l-13.094,29.083s-2.19-.473-4.316-1.16c-.333-.734.019-1.514.982-3.089,2.275-3.722,6.721-3.991,9.616-12.077a179.915,179.915,0,0,0,5.193-19.019A9.154,9.154,0,0,0,1583.111,1372.778Z" transform="translate(-1372.258 -1255.78)" fill="#1d274a"/>
      <path id="Path_1175" data-name="Path 1175" d="M1669.308,1403.631v.006a.022.022,0,0,1,0-.01S1669.308,1403.629,1669.308,1403.631Z" transform="translate(-1458.443 -1286.614)" fill="#1d274a"/>
      <path id="Path_1176" data-name="Path 1176" d="M1712.4,1420.7c0,.793-4.608.453-5.122.438.933-.136,1.395-2.209,1.616-2.923a13.062,13.062,0,0,0,.658-5.1,31.981,31.981,0,0,0-1.283-5.144c-1.463-5.346-3.222-10.616-5.034-15.852-.027-.079-.529-1.38-.49-1.4,0,0-1.377.827-.689-.275s.139-1.173-1.516-1.241-3.379-.482-1.311-.9,2.965.55,2.345,0-1.931-1.861.344-.966a5.137,5.137,0,0,0,2.659.281c-.993.374-1.613.79-1.553,1.234C1703.3,1390.918,1712.4,1419.867,1712.4,1420.7Z" transform="translate(-1482.521 -1272.823)" fill="#1d274a"/>
      <path id="Path_1177" data-name="Path 1177" d="M1682.338,1106.388c-.55,4.482-.344,15.234-1.86,15.923s-22.884.345-23.3,0c-.357-.3-.1-2.094-.019-2.571a.2.2,0,0,1,.132-.156l5.057-1.752s-.015-.022-.046-.059c-.365-.465-2.85-3.651-2.85-4.355,0,0-5.1,9.9-8.823,9.292s-5.858-23.075-5.858-23.075,3.445-1.174,3.859-.347,3.514,12.547,3.514,12.547,2.594-5.427,4.548-8.492a7.868,7.868,0,0,1,1.52-1.918c1.654-1.172,5.972-3.854,5.972-3.854a.005.005,0,0,0,0,0,2.4,2.4,0,0,0,.318.228l.007.005.112.066c1,.582,3.613,1.564,6.824-1.274,0,0,1.57.394,3.389.9,1.684.47,3.583,1.037,4.649,1.473,0,0,0,0,0,0a4.334,4.334,0,0,1,.646.309C1681.443,1100.117,1682.89,1101.909,1682.338,1106.388Z" transform="translate(-1438.058 -1031.512)" fill="#fbcd2a"/>
      <path id="Path_1178" data-name="Path 1178" d="M1692.922,1136.473c-.159.72-.428,1.681-.74,3.044-.67,2.932-3.031,8.892-3.031,7.651a3.9,3.9,0,0,0-.775-2.2S1690.968,1139.538,1692.922,1136.473Z" transform="translate(-1474.287 -1064.642)" fill="#e2b31e"/>
      <path id="Path_1179" data-name="Path 1179" d="M1748.7,1177.644s11.113-1.379,12.836-1.655c0,0,.276-6.186.965-7.4a15.183,15.183,0,0,1-4.814,6.643C1755.56,1176.82,1752.627,1177.278,1748.7,1177.644Z" transform="translate(-1524.413 -1091.325)" fill="#e2b31e"/>
      <path id="Path_1180" data-name="Path 1180" d="M1734.436,1200.4c-.366-.465-2.85-3.652-2.85-4.355,0,0,1.758,2.62,4.161,2.827C1737.688,1199.038,1736.349,1200.105,1734.436,1200.4Z" transform="translate(-1510.19 -1114.138)" fill="#e2b31e"/>
      <path id="Path_1181" data-name="Path 1181" d="M1743.294,1118.071c-.55,4.481-.344,15.234-1.861,15.923s-22.884.345-23.3,0c0,0,18.9.277,20.9-1.584s3.379-7.1,3.309-10.339.677-7.928-1.9-11.408a4.349,4.349,0,0,1,.645.31C1742.4,1111.8,1743.846,1113.591,1743.294,1118.071Z" transform="translate(-1499.015 -1043.195)" fill="#e2b31e"/>
      <path id="Path_1182" data-name="Path 1182" d="M1771.784,1097.5c-1.245,1.086-4.911,2.571-7.269,1.957-2.569-.668-3.044-1.583-3.063-1.657l.007.005a.842.842,0,0,0,.112.066c1,.582,3.612,1.564,6.824-1.274C1768.394,1096.6,1769.964,1096.995,1771.784,1097.5Z" transform="translate(-1535.005 -1031.512)" fill="#e2b31e"/>
      <path id="Path_1183" data-name="Path 1183" d="M1667.087,1234.59c-.473.124-1.145.3-1.836.459a6.235,6.235,0,0,1-3.246-.651c-.385-.139-.777-.271-1.173-.376a2.359,2.359,0,0,0-2.108.116c-.169.084-.35.182-.582.277-.819.335-1.913-.36-1.865-.745a.209.209,0,0,1,.135-.163c.23-.107.8-.422,1.486-.761a9.167,9.167,0,0,1,3.06-1.084c.63,0,2.377.1,3.942.193.7.039,1.355.08,1.863.111-.037.223-.116.716-.153,1.212-.044.592-.031,1.191.175,1.352A.917.917,0,0,0,1667.087,1234.59Z" transform="translate(-1447.615 -1143.732)" fill="#fcd6cb"/>
      <path id="Path_1184" data-name="Path 1184" d="M1667.087,1242.037c-.473.124-1.145.3-1.836.459a6.232,6.232,0,0,1-3.246-.651c-.385-.139-.777-.271-1.173-.376a2.36,2.36,0,0,0-2.108.116c-.169.085-.35.182-.582.277-.819.335-1.913-.36-1.865-.744.237.248.624.467,1.536.151,1.285-.445,1.78-.91,3.338-.315s3.995.871,5.13-.12a1.216,1.216,0,0,1,.328-.209c-.044.591-.031,1.191.175,1.352A.907.907,0,0,0,1667.087,1242.037Z" transform="translate(-1447.615 -1151.179)" fill="#f1a498" opacity="0.5"/>
      <path id="Path_1185" data-name="Path 1185" d="M1666.048,1091.419a5.944,5.944,0,0,0,.128-1.1A3.221,3.221,0,0,1,1666.048,1091.419Z" transform="translate(-1455.736 -1026.289)" fill="#f1a498"/>
      <path id="Path_1186" data-name="Path 1186" d="M1802.866,977.205v0a1.838,1.838,0,0,1-1.01.133,7.643,7.643,0,0,0-4.663-5.494,3.644,3.644,0,0,1,.615-.69C1800.023,972.255,1802.81,974.218,1802.866,977.205Z" transform="translate(-1564.701 -927.283)" fill="#192342"/>
      <path id="Path_1187" data-name="Path 1187" d="M1763.078,1054.22c-.654.7-2.511,2.89-3.731,4.172-.108-1.3-.166-2.415-.166-2.415s3.688-1.689,3.929-3.1a8.82,8.82,0,0,0,.208-1.725S1763.973,1053.255,1763.078,1054.22Z" transform="translate(-1533.119 -993.749)" fill="#f1a498" opacity="0.5"/>
      <g id="Group_283" data-name="Group 283" transform="translate(217.698 52.716)">
        <path id="Path_1188" data-name="Path 1188" d="M1711.968,1027.947a2.25,2.25,0,1,1,2.25-2.25A2.252,2.252,0,0,1,1711.968,1027.947Zm0-4.3a2.055,2.055,0,1,0,2.055,2.055A2.057,2.057,0,0,0,1711.968,1023.642Z" transform="translate(-1709.718 -1023.447)" fill="#192342"/>
      </g>
      <g id="Group_284" data-name="Group 284" transform="translate(223.171 52.58)">
        <path id="Path_1189" data-name="Path 1189" d="M1744.467,1027.414a2.386,2.386,0,1,1,2.386-2.386A2.389,2.389,0,0,1,1744.467,1027.414Zm0-4.565a2.179,2.179,0,1,0,2.18,2.179A2.182,2.182,0,0,0,1744.467,1022.849Z" transform="translate(-1742.081 -1022.642)" fill="#192342"/>
      </g>
      <line id="Line_219" data-name="Line 219" x2="0.01" y2="1.175" transform="translate(105.4)" fill="#fcd6cb"/>
      <g id="Group_269" data-name="Group 269" transform="translate(0 38.875)">
        <path id="Path_1115" data-name="Path 1115" d="M188.087,1465s-7.165-10.126,18.356-9.546,23.708,5.115,48.175,4.064,60.418-4.185,47.5,9.074S194.008,1479.6,188.087,1465Z" transform="translate(-187.161 -1355.918)" fill="#201d37"/>
        <path id="Path_1116" data-name="Path 1116" d="M533.958,1201.994a.375.375,0,0,0-.431-.292.369.369,0,0,0-.292.431l1.938,10.072H495.527a.365.365,0,0,0-.281.133l1.964-10.205a.368.368,0,0,0-.724-.139l-9.854,51.216a.368.368,0,0,0,.724.139l7.823-40.662a.368.368,0,0,0,.348.254h39.787l7.775,40.408a.369.369,0,0,0,.362.3.367.367,0,0,0,.362-.438Z" transform="translate(-435.979 -1146.265)" fill="#f7f7f7"/>
        <path id="Path_1117" data-name="Path 1117" d="M365.9,893.879a32.477,32.477,0,0,0,1.27-6.351c0-1.507,1.329-3.068,2.382-4a8.745,8.745,0,0,1,7.243-1.962c1.58.254,3.789.765,4.777,2.114,1.26,1.721,2.464,4.094,1.765,6.269a8.259,8.259,0,0,1-.9,2.258c-.054.075-.144.141-.191.213-.383.583.051,1.722.1,2.371.032.4.233,1.749-.343,1.913-.808.231-.462-.4-.809.231-.293.537-.561,1.088-.9,1.6s-.871.839-1.061,1.427c-.23.713-.028,3.235-1.333,3.035-1.5-.231-3.638-3.349-5.427-2.194s-2.021,1.963-2.021,1.963Z" transform="translate(-499.904 -791.942) rotate(-11)" fill="#fcd6cb"/>
        <path id="Path_1125" data-name="Path 1125" d="M234.746,1263.054s-.229,2.632.98,2.924,5.764-.82,5.6-2.924-.115-4.058-1.848-4.289-4.746,3.63-4.746,3.63" transform="translate(-226.684 -1192.504)" fill="#57cef4"/>
        <path id="Path_1126" data-name="Path 1126" d="M337.908,1313.159v-.03s-.09,0-.257.012c-.166-.01-.257-.012-.257-.012v.03c-3.231.262-20.644,2.8-20.415,27.1h1.407c.608-.924.239-24.21,19.265-25.134,19.027.923,18.658,24.209,19.266,25.134h1.407C358.552,1315.958,341.139,1313.42,337.908,1313.159Z" transform="translate(-295.022 -1237.682)" fill="#007aff"/>
        <path id="Path_1127" data-name="Path 1127" d="M247.411,1353.928v-.03s-.09,0-.257.012c-.166-.01-.257-.012-.257-.012v.03c-3.231.262-20.644,2.8-20.416,27.1h1.407c.608-.924.239-24.211,19.266-25.134,19.027.924,18.658,24.21,19.265,25.134h1.407C268.055,1356.727,250.642,1354.189,247.411,1353.928Z" transform="translate(-219.83 -1271.556)" fill="#007aff"/>
        <path id="Path_1128" data-name="Path 1128" d="M219.661,1324.265s-1.633,3.1,1.254,3.926,36.184,2.673,38.07,2.327,4.028-3.795,4.027-3.809-42.674-2.444-42.674-2.444Z" transform="translate(-213.783 -1246.935)" fill="#57cef4"/>
        <g id="Group_268" data-name="Group 268" transform="translate(0.002 21.898)">
          <path id="Path_1129" data-name="Path 1129" d="M187.17,1000.437q.9,21.579,1.836,43.157a2.6,2.6,0,0,0,3.207,2.409c4.348-1.065,8.63-2.662,11.21-6.2,3.042-4.171,2.8-9.834,2.085-14.946a77.245,77.245,0,0,0-5.92-21.441c-1.111-2.427-2.511-4.906-4.845-6.2-2.917-1.619-5.477-.269-7.573,1.833" transform="translate(-187.17 -996.499)" fill="#007aff"/>
          <path id="Path_1130" data-name="Path 1130" d="M266.566,1259.537s-36.076-3.008-43.024-2.436,8.714-11.678,16.224-13.4,35.206-2.289,33.725.763S271.682,1258.2,266.566,1259.537Z" transform="translate(-215.948 -1200.728)" fill="#007aff"/>
        </g>
        <path id="Path_1131" data-name="Path 1131" d="M506.4,1149.744l9.079,1.363c1.628.245,4.976,3.022,5.689,3.524s-1.3,1.688-2.506.938-1.282-1.375-3.513-1.1-4.48,1.254-6.128.569-3.205-1.4-3.205-1.4l.508-3.383" transform="translate(-451.925 -1101.929)" fill="#fcd6cb"/>
        <path id="Path_1132" data-name="Path 1132" d="M506.869,1166.635h9.18c1.646,0,5.37,2.25,6.149,2.641s-1.04,1.863-2.339,1.3-1.472-1.17-3.637-.563-4.244,1.905-5.976,1.472-3.378-.909-3.378-.909v-3.421" transform="translate(-452.799 -1115.964)" fill="#fcd6cb"/>
        <path id="Path_1133" data-name="Path 1133" d="M517.94,1159.157a8.754,8.754,0,0,0-3.09-1.024h-9.033l.184-1.218.076-.513,9.078,1.363A8.376,8.376,0,0,1,517.94,1159.157Z" transform="translate(-451.925 -1107.462)" fill="#f1a498" opacity="0.7"/>
        <path id="Path_1134" data-name="Path 1134" d="M520.191,1444.512v2.948a32.4,32.4,0,0,0,4.393,2.336c.334.056.617-2.854.617-2.854l.495-3.43Z" transform="translate(-463.868 -1346.014)" fill="#fcd6cb"/>
        <path id="Path_1135" data-name="Path 1135" d="M512.257,1463.792a13.647,13.647,0,0,0-1.446,6.785c.334,3.448,2.113,2.447,3.893,2.669s1.557-.667,1.557-.667c.039.158.934.415,1.065.466a16.306,16.306,0,0,0,2.865.816,15.3,15.3,0,0,0,3.759.215,8.651,8.651,0,0,0,3.569-.628,1.9,1.9,0,0,0-.123-3.354c-2.558-1.557-6.37-.963-7.641-2.965a35.176,35.176,0,0,0-2.383-3.337S513.481,1464.459,512.257,1463.792Z" transform="translate(-456.04 -1362.864)" fill="#5960a3"/>
        <path id="Path_1136" data-name="Path 1136" d="M464.22,1474.594v3.06a33.652,33.652,0,0,0,4.561,2.425c.346.058.641-2.964.641-2.964l.514-3.561Z" transform="translate(-417.363 -1370.976)" fill="#fcd6cb"/>
        <path id="Path_1137" data-name="Path 1137" d="M318.969,1229.263c0,4.043-1.316,19.388-1.547,19.734a6.354,6.354,0,0,1-2.418.156,18.485,18.485,0,0,1-3.587-.386c-.2-.068-.324-.651-.393-1.535-.01-.128-.019-.263-.026-.4-.184-3.34.225-9.875.1-10.539-.019-.1-.05-.068-.1.134-.461,1.962-1.663,15.345-2.356,16.847a1.569,1.569,0,0,1-1,.781c-1.377.456-3.679.113-4.888.026-1.616-.114-1.316-1.32-1.2-2.936.01-.137.026-.319.045-.54.206-2.366.864-9.24-.019-13.185-.014-.064-.028-.125-.042-.185-1.032-4.272-.239-11.2-.007-12.641s-5.428-1.563-9.383-.523-20.3.462-21.673-1.154c-.762-.9-1.072-3.811-1.2-6.232-.1-1.952-.083-4.4-.083-4.4s0,.819.694.473,18.707-5.427,22.98-6.006,15.011,1.618,19.168,2.311,5.775,2.655,6.121,4.734S318.969,1225.221,318.969,1229.263Z" transform="translate(-255.322 -1149.21)" fill="#34406b"/>
        <path id="Path_1138" data-name="Path 1138" d="M366.17,881.056s-.615-5.456,0-6.929a11.226,11.226,0,0,1,1.669-3.2c1.142-1.646,2.285-3.811,5.712-3.9s3.515.779,4.833.779,5.974,1.53,6.677,3.349.436,4.594-.706,5.2-3.773-1.707-5.179-2.4-1.056.26-.968,1.039-.527,2.512-1.142,2.771-1.505-.086-1.412.78-1.137,3.638-1.137,4.677,1.054,3.291,1.845,2.858,2.37-1.887,3.515-1.732a4.8,4.8,0,0,1,1.472.343s-.172,1.971-1.167,2.029c0,0-2-.841-2.531-.091a3.933,3.933,0,0,0,1.757.924c.879.115.41,6.409-3.4,4.388s-5.682-5.312-4.452-7.39,1.7-2.021,2.05-3,.937-3.176.059-3.753-2.285-1.213-3.046.52-1.582,4.1-3.222,3.464S366.17,881.056,366.17,881.056Z" transform="translate(-497.617 -780.176) rotate(-11)" fill="#e2b31e"/>
        <path id="Path_1139" data-name="Path 1139" d="M310.793,1089.207c-.513-1.041-.828-1.717-.849-1.763A2.7,2.7,0,0,1,310.793,1089.207Z" transform="translate(-289.179 -1050.165)" fill="#5960a3"/>
        <path id="Path_1140" data-name="Path 1140" d="M310.122,1002.078c-.745-.237-4.795-1.545-6.411-2.33-1.784-.866-5.046-1.963-6.431-3.781s-2.252-.741-2.858-2.882c-.6-2.12-2.815-9.191-3.194-10,0-.009-.007-.016-.011-.023a15.154,15.154,0,0,0-1.573-1.931c-.378-.423-.757-.834-1.054-1.154-1.642-2.895-6.551-8.809-7.7-8.174,0,0-8.055,3.638-9.787,12.645s-5.083,33-3,33.871a42.851,42.851,0,0,0,4.812,1.155c6.768,1.393,17.994,2.383,18.632,2.129.866-.347,1.3-9.96,1.386-11.259,0-.045.005-.109.005-.192s0-.2,0-.329c2.759.139,15.231.756,15.744.551.435-.175.016-3.74-.315-5.723a9.689,9.689,0,0,0-.262-1.264C308.162,1003.109,309.125,1001.818,310.122,1002.078Z" transform="translate(-253.865 -954.043)" fill="#fff"/>
        <path id="Path_1141" data-name="Path 1141" d="M349.75,951.553s-3.118,3.464-2.858,3.464,7.045,4.663,7.3,10.032l2.742-3.017S351.829,952.246,349.75,951.553Z" transform="translate(-319.866 -937.256)" fill="#fff"/>
        <path id="Path_1142" data-name="Path 1142" d="M312.624,1120.727c-.229,2.743-.565,5.475-1.018,5.657-.638.255-12.115-.714-18.88-2.18a24.023,24.023,0,0,1,.606-4.085c.693-2.655-2.078-7.159-1.732-8.545s3.58.923,3.927-1.5c.274-1.912.726-8.848.014-12.207,1.892,3.835,6.47,12.641,8.993,13.362,3.232.923,7.852,3.695,8.429,3.695a.077.077,0,0,1,.035.01c0,.083,0,.147-.005.192-.031.471-.109,2.041-.235,3.863Z" transform="translate(-273.911 -1058.825)" fill="#e4e4e4"/>
        <path id="Path_1143" data-name="Path 1143" d="M403.269,1042.286c.606,2.141,1.472,1.063,2.858,2.882,1.233,1.618,8.985,3.456,10.824,4.277-3.948-.617-13.874-2.172-14.262-2.222-.656-.087-4.727-19.2-4.2-20.032.708.788.494,1.782.655,2.1" transform="translate(-362.71 -1000.102)" fill="#e4e4e4"/>
        <path id="Path_1144" data-name="Path 1144" d="M308.057,1303.333c-1.377.456-3.679.113-4.888.026-1.616-.114-1.316-1.32-1.2-2.936.01-.137.026-.319.045-.541.206-2.366.864-9.239-.019-13.185-.014-.064-.028-.125-.042-.186-1.032-4.271-.239-11.2-.007-12.641s-5.428-1.562-9.383-.523-20.3.462-21.673-1.154c-.762-.9-1.072-3.811-1.2-6.232.019.372.695,1.2.889,1.521a12.183,12.183,0,0,0,2.138,2.652c2.685,2.5,7.583,1.925,10.99,1.89,5.423-.054,10.838-.227,16.255-.227,3.2,0,5.761,1.843,6.367,1.843s-.606,1.3-.606,1.906,1.084.606,1.235.866-2.448.346-1.928,2.338a11.915,11.915,0,0,1,.52,6.669c-.606,3.551-1.559,13.4-.693,15.219C305.467,1301.916,307.805,1302.424,308.057,1303.333Z" transform="translate(-255.735 -1198.492)" fill="#1d274a"/>
        <path id="Path_1145" data-name="Path 1145" d="M520.131,1312.068a18.469,18.469,0,0,1-3.587-.386c-.2-.068-.324-.651-.393-1.535a.863.863,0,0,0-.026-.4c-.184-3.34.225-9.875.1-10.539.513-6.061,1.533-16.575,1.533-16.834,0,0,.866,7.881.953,11.432s-.52,12.471,1.039,16.8A6.652,6.652,0,0,1,520.131,1312.068Z" transform="translate(-460.45 -1212.125)" fill="#1d274a"/>
        <path id="Path_1146" data-name="Path 1146" d="M434.708,1232.141a3.556,3.556,0,0,0-1.494-2.569c-2.481-2.071-6.2-2.538-9.264-3.266-.561-.134-7.982-1.67-7.97-1.805.049-.587.092-1.176.132-1.739,3.142.594,10.812,2.134,14.434,3.672A6.243,6.243,0,0,1,434.708,1232.141Z" transform="translate(-377.282 -1162.597)" fill="#1d274a"/>
        <path id="Path_1147" data-name="Path 1147" d="M472.539,1503.947a2.214,2.214,0,0,1-.71.693c-.915.578-2.642.587-3.705.653a15.932,15.932,0,0,1-3.9-.224,16.909,16.909,0,0,1-2.976-.847c-.135-.054-1.065-.321-1.105-.485,0,0,.23.923-1.618.693s-3.695.809-4.041-2.772a9.329,9.329,0,0,1-.043-.958,14.741,14.741,0,0,1,1.545-6.085c1.27.693,5.311,0,5.311,0a36.5,36.5,0,0,1,2.475,3.464c1.318,2.079,5.276,1.462,7.933,3.078A2.007,2.007,0,0,1,472.539,1503.947Z" transform="translate(-409.236 -1388.476)" fill="#5960a3"/>
        <path id="Path_1148" data-name="Path 1148" d="M472.539,1533.842a2.218,2.218,0,0,1-.71.693c-.915.579-2.642.587-3.705.653a15.932,15.932,0,0,1-3.9-.223,16.91,16.91,0,0,1-2.976-.847c-.135-.054-1.065-.321-1.105-.485,0,0,.23.923-1.618.693s-3.695.809-4.041-2.771a9.336,9.336,0,0,1-.043-.958c1.623.622,9.168,3.471,11.585,3.575C468.335,1534.27,471.15,1534.41,472.539,1533.842Z" transform="translate(-409.236 -1418.37)" fill="#34416b"/>
        <path id="Path_1149" data-name="Path 1149" d="M528.195,1501.59a2.131,2.131,0,0,1-.684.667,8.659,8.659,0,0,1-3.567.629,15.351,15.351,0,0,1-3.757-.215,16.282,16.282,0,0,1-2.865-.816c-.13-.052-1.025-.308-1.064-.467,0,0,.222.889-1.558.667s-3.557.779-3.89-2.668a9.068,9.068,0,0,1-.042-.922c1.563.6,8.826,3.342,11.152,3.442C524.148,1502,526.857,1502.137,528.195,1501.59Z" transform="translate(-456.04 -1391.674)" fill="#34416b"/>
      </g>
    </g>
  </g>
</svg>
