<svg xmlns="http://www.w3.org/2000/svg" xmlns:xlink="http://www.w3.org/1999/xlink" width="303.689" height="193.744" viewBox="0 0 303.689 193.744">
  <defs>
    <linearGradient id="linear-gradient" x1="1" y1="0.5" x2="0" y2="0.5" gradientUnits="objectBoundingBox">
      <stop offset="0" stop-color="#fc9531"/>
      <stop offset="1" stop-color="#fcbc3d"/>
    </linearGradient>
    <linearGradient id="linear-gradient-2" x1="1" y1="0.5" x2="0" y2="0.5" gradientUnits="objectBoundingBox">
      <stop offset="0" stop-color="#cf6d1a"/>
      <stop offset="1" stop-color="#fcbc3d"/>
    </linearGradient>
    <linearGradient id="linear-gradient-3" x1="0.5" y1="1" x2="0.5" y2="0" xlink:href="#linear-gradient-2"/>
  </defs>
  <g id="Group_657" data-name="Group 657" transform="translate(-23.903 -281.617)">
    <g id="Group_289" data-name="Group 289" transform="translate(23.903 372.397)" opacity="0.995">
      <path id="Path_4" data-name="Path 4" d="M266.345,390.763c30.094,13.359,30.251,35.021.358,48.378s-78.52,13.362-108.614,0-30.24-35.021-.347-48.38S236.257,377.4,266.345,390.763Z" transform="translate(-135.423 -380.743)" fill="#201d37" opacity="0.6"/>
    </g>
    <g id="Group_408" data-name="Group 408" transform="translate(152 294.617)">
      <path id="Path_1724" data-name="Path 1724" d="M84.107,570.295V556.738c0-12.943-11.14-23.324-24.084-23.324H57.617a23.138,23.138,0,0,0-23.2,23.324v13.557C28.211,572.267,22,578.449,22,585.763v23.7c0,8.9,7.805,15.559,16.7,15.559H78.94c8.9,0,16.036-6.663,16.036-15.559v-23.7A16.129,16.129,0,0,0,84.107,570.295Zm-26.49-30.67h2.407c9.518,0,17.873,7.6,17.873,17.113v12.387H40.632V556.738A16.922,16.922,0,0,1,57.617,539.625Zm31.148,69.263a9.922,9.922,0,0,1-9.922,9.923H38.132a9.922,9.922,0,0,1-9.922-9.923v-23.63a9.922,9.922,0,0,1,9.922-9.922H78.844a9.922,9.922,0,0,1,9.922,9.922Z" transform="translate(-22 -546.414)" fill="#f9d423"/>
      <path id="Path_1725" data-name="Path 1725" d="M48.112,568.47a6.772,6.772,0,0,0-6.736,6.958c0,2.72.969,5.051,4.074,6.2v6.383a3.105,3.105,0,1,0,6.211,0v-6.383c1.553-1.144,3.63-3.475,3.63-6.2A7.15,7.15,0,0,0,48.112,568.47Z" transform="translate(-11.291 -525.95)" fill="#f9d423"/>
    </g>
    <g id="Group_299" data-name="Group 299" transform="translate(63.844 335.682)">
      <g id="Group_403" data-name="Group 403" transform="translate(24.818 0.806)">
        <g id="Group_401" data-name="Group 401" transform="translate(31.814 54.838)">
          <path id="Path_1672" data-name="Path 1672" d="M611.11,486.9v3.378l-2.925,1.689v-3.378Z" transform="translate(-605.259 -485.21)" fill="#4f4f4f"/>
          <path id="Path_1673" data-name="Path 1673" d="M614.035,487.506l-2.925-1.689-2.925,1.689,2.925,1.689Z" transform="translate(-608.184 -485.817)" fill="#7d7d7d"/>
          <path id="Path_1674" data-name="Path 1674" d="M612.984,488.588l-2.925-1.689v3.378l2.925,1.689Z" transform="translate(-610.058 -485.21)" fill="#6e6e6e"/>
        </g>
        <g id="Group_402" data-name="Group 402" transform="translate(0)">
          <path id="Path_1675" data-name="Path 1675" d="M609.189,452.836l-.72-.537,2.426-1.4.03-.016.033-.02v0a1.484,1.484,0,0,1,1.449.023l30.254,17.469a4.482,4.482,0,0,1,2.24,3.881v34.948l-2.482,1.433-.634-2.869.194-.5.44.134L642,472.873a2.759,2.759,0,0,0-1.38-2.39L613.35,454.3a.471.471,0,0,0-.707.409V488.56l-2.482,1.433-.679-3.921.679-.019V453.867Z" transform="translate(-607.679 -450.687)" fill="#dedede"/>
          <path id="Path_1676" data-name="Path 1676" d="M644.8,473.157V508.1l-2.48-1.433V473.6a2.761,2.761,0,0,0-1.38-2.39l-27.689-15.988a.472.472,0,0,0-.707.409v33.852l-2.482-1.433V453.1a1.5,1.5,0,0,1,2.245-1.3l30.254,17.469A4.482,4.482,0,0,1,644.8,473.157Z" transform="translate(-610.059 -450.173)" fill="#b3b3b3"/>
        </g>
      </g>
      <g id="Group_405" data-name="Group 405" transform="translate(0)">
        <g id="Group_404" data-name="Group 404" transform="translate(0)">
          <path id="Path_1677" data-name="Path 1677" d="M639.142,487.426,671.4,468.8l-32.263-18.631-32.257,18.624Z" transform="translate(-606.879 -450.171)" fill="#007aff"/>
          <path id="Path_1678" data-name="Path 1678" d="M639.137,462.106v2.865L606.879,483.6V480.73Z" transform="translate(-574.617 -443.476)" fill="#57cef4"/>
        </g>
        <path id="Path_1679" data-name="Path 1679" d="M659.806,480.732,627.544,462.1v2.865L659.806,483.6Z" transform="translate(-627.544 -443.478)" fill="#c9c9c9"/>
      </g>
      <g id="Group_406" data-name="Group 406" transform="translate(0 20.056)">
        <path id="Path_1680" data-name="Path 1680" d="M633.221,463.02l-2.492,1.433,27.29,15.759v-2.871Z" transform="translate(-630.73 -463.02)" fill="url(#linear-gradient)"/>
        <path id="Path_1681" data-name="Path 1681" d="M630.723,463.937V466.8l27.3,15.763-.01-2.863Z" transform="translate(-630.723 -462.505)" fill="url(#linear-gradient-2)"/>
      </g>
      <g id="Group_407" data-name="Group 407" transform="translate(-4.182 18.806)">
        <g id="Group_401-2" data-name="Group 401" transform="translate(31.814 54.838)">
          <path id="Path_1672-2" data-name="Path 1672" d="M611.11,486.9v3.378l-2.925,1.689v-3.378Z" transform="translate(-605.259 -485.21)" fill="#4f4f4f"/>
          <path id="Path_1673-2" data-name="Path 1673" d="M614.035,487.506l-2.925-1.689-2.925,1.689,2.925,1.689Z" transform="translate(-608.184 -485.817)" fill="#7d7d7d"/>
          <path id="Path_1674-2" data-name="Path 1674" d="M612.984,488.588l-2.925-1.689v3.378l2.925,1.689Z" transform="translate(-610.058 -485.21)" fill="#6e6e6e"/>
        </g>
        <g id="Group_402-2" data-name="Group 402" transform="translate(0)">
          <path id="Path_1675-2" data-name="Path 1675" d="M609.189,452.836l-.72-.537,2.426-1.4.03-.016.033-.02v0a1.484,1.484,0,0,1,1.449.023l30.254,17.469a4.482,4.482,0,0,1,2.24,3.881v34.948l-2.482,1.433-.634-2.869.194-.5.44.134L642,472.873a2.759,2.759,0,0,0-1.38-2.39L613.35,454.3a.471.471,0,0,0-.707.409V488.56l-2.482,1.433-.679-3.921.679-.019V453.867Z" transform="translate(-607.679 -450.687)" fill="#dedede"/>
          <path id="Path_1676-2" data-name="Path 1676" d="M644.8,473.157V508.1l-2.48-1.433V473.6a2.761,2.761,0,0,0-1.38-2.39l-27.689-15.988a.472.472,0,0,0-.707.409v33.852l-2.482-1.433V453.1a1.5,1.5,0,0,1,2.245-1.3l30.254,17.469A4.482,4.482,0,0,1,644.8,473.157Z" transform="translate(-610.059 -450.173)" fill="#b3b3b3"/>
        </g>
      </g>
    </g>
    <g id="Group_300" data-name="Group 300" transform="translate(63.844 301.294)">
      <path id="Path_1691" data-name="Path 1691" d="M625.954,473.026l2.481-1.433V440.077l-2.481,1.433Z" transform="translate(-593.691 -421.446)" fill="url(#linear-gradient-3)"/>
    </g>
    <g id="Group_213" data-name="Group 213" transform="translate(72.274 284.25)">
      <path id="Path_604" data-name="Path 604" d="M298.083,200.633a16.477,16.477,0,0,0-2.482,4.526,3.279,3.279,0,0,0,.309,2.7,41.625,41.625,0,0,0,4.1,2.076c.987.316,3.592,3.785,5.943,4.575s5.227,2.308,6.052.5-9.361-12.476-9.361-12.476Z" transform="translate(-235.207 -80.417)" fill="#e4e4e4"/>
      <path id="Path_605" data-name="Path 605" d="M278.664,198.763s.233,2.094,2.093,1.976,3.489-2.093,3.489-2.093l-.465,7.444s-1.046,11.164-4.3,12.327-3.955-5-3.955-5Z" transform="translate(-249.367 -81.826)" fill="#e4e4e4"/>
      <path id="Path_606" data-name="Path 606" d="M294.928,158.626l.568,20.253-11.716,12.134L273.3,187.758a6.322,6.322,0,0,1-4.438-5.69l-.26-4.72s-5.165-5.623-3.484-6.049,24.515-15.65,24.515-15.65Z" transform="translate(-256.99 -112.342)" fill="#c0cbff"/>
      <g id="Group_210" data-name="Group 210" transform="translate(12.792 63.613)">
        <path id="Path_607" data-name="Path 607" d="M287.28,224.519a5.985,5.985,0,0,1-5.2-8.945c2.137-3.772,7.618-15.285,7.29-23.123-.151-3.621-9.576-10.051-17.9-13.383a5.983,5.983,0,1,1,4.443-11.111c4.148,1.66,24.861,10.612,25.418,24,.53,12.672-7.885,27.852-8.846,29.54A5.985,5.985,0,0,1,287.28,224.519Z" transform="translate(-267.706 -167.525)" fill="#c0cbff"/>
      </g>
      <g id="Group_211" data-name="Group 211" transform="translate(29.785 59.364)">
        <path id="Path_608" data-name="Path 608" d="M313.353,230.529a5.986,5.986,0,0,1-5.96-5.526c-.571-7.4-2.816-28.341-6.307-36.274-2.069-4.7-12.513-9.848-19.268-12a5.984,5.984,0,0,1,3.614-11.409c3.575,1.13,21.66,7.34,26.609,18.588,4.939,11.228,7.058,37.247,7.283,40.176a5.983,5.983,0,0,1-5.507,6.425C313.663,230.522,313.505,230.529,313.353,230.529Z" transform="translate(-277.645 -165.04)" fill="#c0cbff"/>
      </g>
      <path id="Path_609" data-name="Path 609" d="M284.929,139.708l5.62,3.825s4.979,13.4,13.411,21.263c9.193,8.577,21.9,11.74,21.662,13.166-.451,2.736,1.913,5.493-1.7,4.673-1.806-.41-14.435-1.72-24.635-7.22s-17.97-15.192-17.97-15.192Z" transform="translate(-245.256 -123.654)" fill="#f11712"/>
      <path id="Path_610" data-name="Path 610" d="M278.364,146.374a34.282,34.282,0,0,1,16.36-6.251,12.655,12.655,0,0,1,4,.087c4.047,1.005,5.066,3.69,5.227,5.032s-8.672,37.305-8.672,37.305-17.64,11-24.8,7.307c-5.17-2.665-5.2-5.68-4.811-7.148a18,18,0,0,0,.545-2.677l9.005-31.432Z" transform="translate(-256.46 -123.438)" fill="#f11712"/>
      <path id="Path_611" data-name="Path 611" d="M281.306,141.079s-5.309,1.641-5.695,3.089,3.765,6.081,8.784,5.695,10.039-5.213,8.011-6.95S281.306,141.079,281.306,141.079Z" transform="translate(-249.322 -122.681)" fill="#fff"/>
      <g id="Group_212" data-name="Group 212" transform="translate(30.006)">
        <path id="Path_612" data-name="Path 612" d="M291.589,139.422l-6.069,9.2h0a6.522,6.522,0,0,1-7.24-1.169h0a1.6,1.6,0,0,1-.3-1.956l5.136-9.135Z" transform="translate(-277.775 -126.027)" fill="#e5a8b5"/>
        <path id="Path_613" data-name="Path 613" d="M297.665,146.2a10.175,10.175,0,1,1-2.717-14.131A10.175,10.175,0,0,1,297.665,146.2Z" transform="translate(-276.859 -130.318)" fill="#efc5b6"/>
        <path id="Path_614" data-name="Path 614" d="M296.974,143.163a2.549,2.549,0,0,0,1.573,0,.551.551,0,0,0,.063-.036,10.17,10.17,0,0,0-18.242-8.343,9.98,9.98,0,0,0-.667,1.159,3.444,3.444,0,0,0,1.158.735c.978.357,4.645-.092,4.712-1.539l-.1,2.123a2.463,2.463,0,0,0,1.913-1.359A15.078,15.078,0,0,0,296.974,143.163Z" transform="translate(-276.408 -130.318)" fill="#3232a0"/>
        <path id="Path_615" data-name="Path 615" d="M284.442,136.527a3.1,3.1,0,1,1-.827-4.3A3.1,3.1,0,0,1,284.442,136.527Z" transform="translate(-277.062 -129.343)" fill="#efc5b6"/>
      </g>
      <path id="Path_616" data-name="Path 616" d="M313.295,164.887a3.759,3.759,0,1,1-3.76-3.76A3.759,3.759,0,0,1,313.295,164.887Z" transform="translate(-227.896 -108.453)" fill="#efc5b6"/>
      <path id="Path_617" data-name="Path 617" d="M278.988,145.033s-19.039,22.048-18.76,37.271a51.2,51.2,0,0,0,8.121,26.5l6.411-.284s-6.82-25.113-3.847-31.06S286.618,146.886,278.988,145.033Z" transform="translate(-260.224 -119.875)" fill="#f11712"/>
      <path id="Path_618" data-name="Path 618" d="M271.8,187.19a4.4,4.4,0,1,1,.439-6.213A4.4,4.4,0,0,1,271.8,187.19Z" transform="translate(-257.182 -95.443)" fill="#efc5b6"/>
    </g>
    <path id="Path_1727" data-name="Path 1727" d="M1495.78,1533.345s7.811,14.2-20.013,13.383-25.848-7.172-52.523-5.7-65.872,5.867-51.784-12.721S1489.325,1512.886,1495.78,1533.345Z" transform="translate(-1169.197 -1071.401)" fill="#201d37"/>
    <g id="Group_297" data-name="Group 297" transform="translate(218.285 306.157)">
      <g id="Group_219" data-name="Group 219" transform="translate(23.939 54.339)">
        <path id="Path_640" data-name="Path 640" d="M423.419,320.519a5.315,5.315,0,0,1-5.255-4.58c-4.657-33.358,18.023-89.16,18.993-91.519a5.314,5.314,0,1,1,9.832,4.033c-.224.552-22.559,55.506-18.3,86.016a5.312,5.312,0,0,1-4.527,6A4.99,4.99,0,0,1,423.419,320.519Z" transform="translate(-417.534 -221.122)" fill="#4341aa"/>
      </g>
      <path id="Path_641" data-name="Path 641" d="M450.313,283.4c2.647-.527,3.539-2.818,1.405-5.083a15.25,15.25,0,0,0-3.66-.294c-.8.041-1.645-1.286-3.671-1.147-1.455.1-4.129,1.669-5,1.7-6.3.251-5.811,3.148-5.414,3.4,1.747,1.1,3.477,2.265,5.538,2.371A103.449,103.449,0,0,0,450.313,283.4Z" transform="translate(-382.078 -127.226)" fill="#f7f7f7"/>
      <path id="Path_642" data-name="Path 642" d="M427.77,283.657c2.689.183,4.15-1.8,2.683-4.539A15.157,15.157,0,0,0,427,277.88c-.786-.171-1.253-1.672-3.243-2.069-1.431-.284-4.421.533-5.274.339-6.148-1.4-6.432,1.522-6.114,1.865,1.4,1.516,2.766,3.094,4.727,3.736A103.255,103.255,0,0,0,427.77,283.657Z" transform="translate(-397.324 -128.014)" fill="#f7f7f7"/>
      <path id="Path_643" data-name="Path 643" d="M429.451,240.648s6.912,3.344,12.71,3.568,8.919-1.116,8.919-1.116l1.115-11.147-21.183-4.683Z" transform="translate(-385.138 -162.42)" fill="#4341aa"/>
      <g id="Group_220" data-name="Group 220" transform="translate(57.12 60.445)">
        <path id="Path_644" data-name="Path 644" d="M446.867,319.7a5.317,5.317,0,0,1-5.266-4.647c-.19-1.5-4.659-36.883-4.659-46.854,0-9.79,1.585-37.329,1.652-38.5a5.315,5.315,0,0,1,10.612.612c-.017.284-1.634,28.4-1.634,37.885,0,9.306,4.529,45.156,4.575,45.519a5.318,5.318,0,0,1-5.279,5.982Z" transform="translate(-436.942 -224.694)" fill="#4341aa"/>
      </g>
      <path id="Path_645" data-name="Path 645" d="M461.6,211.614c-3.948-5.8-20.359-8.075-24.346-8.8s-4.707,5.078-5.4,11.732l-3.294,23.18s-3.476,8.14,1.681,9.993,26.15,5.6,28.2,1.855C458.956,248.652,463.039,213.72,461.6,211.614Z" transform="translate(-386.579 -179.821)" fill="#57cef4"/>
      <path id="Path_646" data-name="Path 646" d="M452.2,201.794a10.562,10.562,0,1,1-8.5-12.282A10.563,10.563,0,0,1,452.2,201.794Z" transform="translate(-383.865 -189.339)" fill="#91616a"/>
      <path id="Path_647" data-name="Path 647" d="M435.073,197.019l1.592,11.333h0a6.776,6.776,0,0,0,7.311,2.129l1.24-.4-.838-12.154Z" transform="translate(-381.148 -183.889)" fill="#91616a"/>
      <path id="Path_648" data-name="Path 648" d="M445.988,198.839c-.4,2.224-1.681,3.854-2.852,3.64s-1.792-2.188-1.387-4.413,1.682-3.854,2.853-3.64S446.393,196.614,445.988,198.839Z" transform="translate(-376.498 -185.742)" fill="#91616a"/>
      <path id="Path_649" data-name="Path 649" d="M443.038,189.512a10.557,10.557,0,0,0-10.863,4.832,15.14,15.14,0,0,0,6.367,2.686c.819.159,8.436.487,8.347-.874a18.8,18.8,0,0,0,1,4.946,3.586,3.586,0,0,1,3.4-2.85c.092,0,.186,0,.279,0A10.552,10.552,0,0,0,443.038,189.512Z" transform="translate(-383.205 -189.339)" fill="#37354c"/>
      <path id="Path_650" data-name="Path 650" d="M442.444,240.9s.751.409,2.881,1.585c2.949,1.629,1.9,3.3,1.9,3.3s27.767-21.559,26.886-23.217-29.959-18.935-30.868-17.179,1.27,11.217,1.27,11.217,14.849,7.418,13.471,9.09S442.444,240.9,442.444,240.9Z" transform="translate(-375.917 -178.04)" fill="#57cef4"/>
      <path id="Path_651" data-name="Path 651" d="M448.64,226.822a3.843,3.843,0,1,1-3.842-3.842A3.842,3.842,0,0,1,448.64,226.822Z" transform="translate(-376.974 -163.465)" fill="#91616a"/>
      <path id="Path_652" data-name="Path 652" d="M449.473,203.157s-11.585,7.663-19.263,8.759-21.038-7.683-21.038-7.683-2.794,2.891-2.294,3.888,12.082,13.3,21.5,13.886,23.216-8.012,23.216-8.012Z" transform="translate(-401.2 -179.533)" fill="#57cef4"/>
      <path id="Path_653" data-name="Path 653" d="M413.235,207.513a3.843,3.843,0,1,1-3.093-4.471A3.842,3.842,0,0,1,413.235,207.513Z" transform="translate(-402.057 -179.659)" fill="#91616a"/>
    </g>
  </g>
</svg>
